G04*
G04 #@! TF.GenerationSoftware,Altium Limited,Altium Designer,18.0.7 (293)*
G04*
G04 Layer_Physical_Order=2*
G04 Layer_Color=32768*
%FSLAX25Y25*%
%MOIN*%
G70*
G01*
G75*
%ADD46C,0.06800*%
%ADD66C,0.04000*%
%ADD67C,0.19748*%
G04:AMPARAMS|DCode=68|XSize=95.433mil|YSize=95.433mil|CornerRadius=0mil|HoleSize=0mil|Usage=FLASHONLY|Rotation=0.000|XOffset=0mil|YOffset=0mil|HoleType=Round|Shape=Relief|Width=10mil|Gap=10mil|Entries=4|*
%AMTHD68*
7,0,0,0.09543,0.07543,0.01000,45*
%
%ADD68THD68*%
%ADD69C,0.07543*%
%ADD70C,0.08331*%
G04:AMPARAMS|DCode=71|XSize=103.307mil|YSize=103.307mil|CornerRadius=0mil|HoleSize=0mil|Usage=FLASHONLY|Rotation=0.000|XOffset=0mil|YOffset=0mil|HoleType=Round|Shape=Relief|Width=10mil|Gap=10mil|Entries=4|*
%AMTHD71*
7,0,0,0.10331,0.08331,0.01000,45*
%
%ADD71THD71*%
G04:AMPARAMS|DCode=72|XSize=88mil|YSize=88mil|CornerRadius=0mil|HoleSize=0mil|Usage=FLASHONLY|Rotation=0.000|XOffset=0mil|YOffset=0mil|HoleType=Round|Shape=Relief|Width=10mil|Gap=10mil|Entries=4|*
%AMTHD72*
7,0,0,0.08800,0.06800,0.01000,45*
%
%ADD72THD72*%
%ADD73C,0.05598*%
D46*
X142600Y284300D02*
D03*
X107300Y197100D02*
D03*
X101600Y216700D02*
D03*
X130700Y207700D02*
D03*
X76100Y316100D02*
D03*
X87700Y108200D02*
D03*
X278600Y282000D02*
D03*
X196500Y279500D02*
D03*
X245091Y227010D02*
D03*
X188900Y170700D02*
D03*
D66*
X-500Y400000D02*
X0Y200D01*
X-500Y400000D02*
X316000D01*
X316900Y400900D01*
X317400Y400400D01*
X378700D01*
Y233700D02*
Y400400D01*
Y233700D02*
X379100Y233300D01*
X379200D01*
X393700Y218800D01*
Y30500D02*
Y218800D01*
X379400Y16200D02*
X393700Y30500D01*
X379400Y-500D02*
Y16200D01*
X378700Y200D02*
X379400Y-500D01*
X0Y200D02*
X378700D01*
D67*
X362200Y383900D02*
D03*
X15500D02*
D03*
X15300Y16700D02*
D03*
X360100Y14700D02*
D03*
D68*
X202600Y38600D02*
D03*
X202500Y21200D02*
D03*
X27700Y273000D02*
D03*
Y123000D02*
D03*
X380300Y118700D02*
D03*
D69*
X212600Y38600D02*
D03*
X222600D02*
D03*
X232600D02*
D03*
X212500Y21200D02*
D03*
X222500D02*
D03*
X232500D02*
D03*
X27700Y263000D02*
D03*
Y253000D02*
D03*
Y243000D02*
D03*
Y233000D02*
D03*
Y223000D02*
D03*
Y213000D02*
D03*
Y203000D02*
D03*
Y193000D02*
D03*
Y183000D02*
D03*
Y173000D02*
D03*
Y163000D02*
D03*
Y153000D02*
D03*
Y143000D02*
D03*
Y133000D02*
D03*
X380300Y108700D02*
D03*
Y128700D02*
D03*
Y138700D02*
D03*
Y148700D02*
D03*
Y158700D02*
D03*
X244600Y383600D02*
D03*
X234600D02*
D03*
X224600D02*
D03*
X214600D02*
D03*
X204600D02*
D03*
X194600D02*
D03*
X184600D02*
D03*
X174600D02*
D03*
D70*
X234800Y122400D02*
D03*
D71*
X214800D02*
D03*
D72*
X109800Y342200D02*
D03*
X245213Y195513D02*
D03*
X224578Y303700D02*
D03*
X364442Y71443D02*
D03*
X104900Y321000D02*
D03*
X208000Y146500D02*
D03*
X107400Y59700D02*
D03*
X22400Y81600D02*
D03*
X105600Y92000D02*
D03*
X123000Y268100D02*
D03*
X257500Y328500D02*
D03*
X306000Y308700D02*
D03*
X258300Y270500D02*
D03*
X175276Y278682D02*
D03*
X246000Y217400D02*
D03*
X244305Y235200D02*
D03*
X220461Y181039D02*
D03*
X204900Y178500D02*
D03*
X182400Y175200D02*
D03*
X176178Y209722D02*
D03*
X197389Y206511D02*
D03*
X215300Y205500D02*
D03*
X225600Y214300D02*
D03*
X218600Y241800D02*
D03*
X186000Y253900D02*
D03*
X169178Y233278D02*
D03*
X123700Y203700D02*
D03*
X124337Y227663D02*
D03*
X144200Y224200D02*
D03*
X143900Y236900D02*
D03*
X8000Y333300D02*
D03*
D73*
X344000Y161100D02*
D03*
X343500Y151100D02*
D03*
X343000Y139500D02*
D03*
X343500Y127800D02*
D03*
X290100Y175600D02*
D03*
X261000Y156300D02*
D03*
X262000Y179400D02*
D03*
X180300Y146500D02*
D03*
X234700Y146400D02*
D03*
X171740Y170200D02*
D03*
X141200Y173300D02*
D03*
X267700Y329100D02*
D03*
X262600Y299400D02*
D03*
X203600Y161000D02*
D03*
X240966Y179700D02*
D03*
X230654Y174000D02*
D03*
X153700Y182200D02*
D03*
M02*
