G04*
G04 #@! TF.GenerationSoftware,Altium Limited,Altium Designer,18.0.7 (293)*
G04*
G04 Layer_Physical_Order=3*
G04 Layer_Color=36540*
%FSLAX25Y25*%
%MOIN*%
G70*
G01*
G75*
%ADD58C,0.06000*%
%ADD59C,0.05906*%
%ADD60R,0.05906X0.05906*%
%ADD61R,0.05906X0.05906*%
%ADD62R,0.07284X0.07284*%
%ADD63C,0.07284*%
%ADD64C,0.05000*%
%ADD65C,0.02402*%
G36*
X378700Y233700D02*
X379100Y233300D01*
X379200D01*
X393700Y218800D01*
Y30500D01*
X379400Y16200D01*
Y153D01*
X378938Y-38D01*
X378700Y200D01*
X0D01*
X-291Y232946D01*
X62Y233300D01*
X23753D01*
X24016Y233000D01*
X24141Y232046D01*
X24509Y231158D01*
X25095Y230395D01*
X25858Y229809D01*
X26746Y229441D01*
X27700Y229316D01*
X28654Y229441D01*
X29542Y229809D01*
X30305Y230395D01*
X30891Y231158D01*
X31259Y232046D01*
X31384Y233000D01*
X31647Y233300D01*
X165931D01*
X165950Y233278D01*
X166060Y232443D01*
X166383Y231664D01*
X166896Y230996D01*
X167564Y230483D01*
X168343Y230160D01*
X169178Y230050D01*
X170013Y230160D01*
X170792Y230483D01*
X171460Y230996D01*
X171973Y231664D01*
X172296Y232443D01*
X172406Y233278D01*
X172425Y233300D01*
X241730D01*
X242023Y232918D01*
X242692Y232405D01*
X243470Y232082D01*
X244305Y231972D01*
X245141Y232082D01*
X245919Y232405D01*
X246588Y232918D01*
X246881Y233300D01*
X317400D01*
X378600Y233799D01*
X378700Y233700D01*
D02*
G37*
G36*
X317400Y400400D02*
X378700D01*
Y253691D01*
X378200Y253200D01*
X189515Y253200D01*
X189185Y253576D01*
X189228Y253900D01*
X189118Y254735D01*
X188795Y255514D01*
X188282Y256182D01*
X187614Y256695D01*
X186835Y257018D01*
X186000Y257128D01*
X185165Y257018D01*
X184386Y256695D01*
X183718Y256182D01*
X183205Y255514D01*
X182882Y254735D01*
X182772Y253900D01*
X182815Y253576D01*
X182485Y253200D01*
X31358Y253200D01*
X31259Y253954D01*
X30891Y254842D01*
X30305Y255605D01*
X29542Y256191D01*
X28654Y256559D01*
X27700Y256684D01*
X26746Y256559D01*
X25858Y256191D01*
X25095Y255605D01*
X24509Y254842D01*
X24141Y253954D01*
X24042Y253200D01*
X-316D01*
X-500Y399646D01*
X-146Y400000D01*
X316000D01*
X316900Y400900D01*
X317400Y400400D01*
D02*
G37*
%LPC*%
G36*
X245590Y230474D02*
Y227509D01*
X248555D01*
X248500Y227923D01*
X248148Y228774D01*
X247587Y229506D01*
X246856Y230067D01*
X246004Y230419D01*
X245590Y230474D01*
D02*
G37*
G36*
X244590D02*
X244177Y230419D01*
X243325Y230067D01*
X242594Y229506D01*
X242033Y228774D01*
X241681Y227923D01*
X241626Y227509D01*
X244590D01*
Y230474D01*
D02*
G37*
G36*
X124337Y230891D02*
X123502Y230781D01*
X122723Y230458D01*
X122055Y229945D01*
X121542Y229277D01*
X121219Y228498D01*
X121109Y227663D01*
X121219Y226828D01*
X121542Y226049D01*
X122055Y225381D01*
X122723Y224868D01*
X123502Y224545D01*
X124337Y224435D01*
X125172Y224545D01*
X125951Y224868D01*
X126619Y225381D01*
X127132Y226049D01*
X127455Y226828D01*
X127565Y227663D01*
X127455Y228498D01*
X127132Y229277D01*
X126619Y229945D01*
X125951Y230458D01*
X125172Y230781D01*
X124337Y230891D01*
D02*
G37*
G36*
X248555Y226509D02*
X245590D01*
Y223545D01*
X246004Y223600D01*
X246856Y223952D01*
X247587Y224513D01*
X248148Y225244D01*
X248500Y226096D01*
X248555Y226509D01*
D02*
G37*
G36*
X244590D02*
X241626D01*
X241681Y226096D01*
X242033Y225244D01*
X242594Y224513D01*
X243325Y223952D01*
X244177Y223600D01*
X244590Y223545D01*
Y226509D01*
D02*
G37*
G36*
X144200Y227428D02*
X143365Y227318D01*
X142586Y226995D01*
X141918Y226482D01*
X141405Y225814D01*
X141082Y225035D01*
X140972Y224200D01*
X141082Y223365D01*
X141405Y222586D01*
X141918Y221918D01*
X142586Y221405D01*
X143365Y221082D01*
X144200Y220972D01*
X145035Y221082D01*
X145814Y221405D01*
X146482Y221918D01*
X146995Y222586D01*
X147318Y223365D01*
X147428Y224200D01*
X147318Y225035D01*
X146995Y225814D01*
X146482Y226482D01*
X145814Y226995D01*
X145035Y227318D01*
X144200Y227428D01*
D02*
G37*
G36*
X27700Y226684D02*
X26746Y226559D01*
X25858Y226191D01*
X25095Y225605D01*
X24509Y224842D01*
X24141Y223954D01*
X24016Y223000D01*
X24141Y222046D01*
X24509Y221158D01*
X25095Y220395D01*
X25858Y219809D01*
X26746Y219441D01*
X27700Y219316D01*
X28654Y219441D01*
X29542Y219809D01*
X30305Y220395D01*
X30891Y221158D01*
X31259Y222046D01*
X31384Y223000D01*
X31259Y223954D01*
X30891Y224842D01*
X30305Y225605D01*
X29542Y226191D01*
X28654Y226559D01*
X27700Y226684D01*
D02*
G37*
G36*
X102100Y220164D02*
Y217200D01*
X105064D01*
X105010Y217614D01*
X104657Y218465D01*
X104096Y219196D01*
X103365Y219757D01*
X102514Y220110D01*
X102100Y220164D01*
D02*
G37*
G36*
X101100D02*
X100686Y220110D01*
X99835Y219757D01*
X99104Y219196D01*
X98543Y218465D01*
X98190Y217614D01*
X98136Y217200D01*
X101100D01*
Y220164D01*
D02*
G37*
G36*
X246000Y220628D02*
X245165Y220518D01*
X244386Y220195D01*
X243718Y219682D01*
X243205Y219014D01*
X242882Y218235D01*
X242772Y217400D01*
X242882Y216565D01*
X243205Y215786D01*
X243718Y215118D01*
X244386Y214605D01*
X245165Y214282D01*
X246000Y214172D01*
X246835Y214282D01*
X247614Y214605D01*
X248282Y215118D01*
X248795Y215786D01*
X249118Y216565D01*
X249228Y217400D01*
X249118Y218235D01*
X248795Y219014D01*
X248282Y219682D01*
X247614Y220195D01*
X246835Y220518D01*
X246000Y220628D01*
D02*
G37*
G36*
X105064Y216200D02*
X102100D01*
Y213236D01*
X102514Y213290D01*
X103365Y213643D01*
X104096Y214204D01*
X104657Y214935D01*
X105010Y215786D01*
X105064Y216200D01*
D02*
G37*
G36*
X101100D02*
X98136D01*
X98190Y215786D01*
X98543Y214935D01*
X99104Y214204D01*
X99835Y213643D01*
X100686Y213290D01*
X101100Y213236D01*
Y216200D01*
D02*
G37*
G36*
X225600Y217528D02*
X224765Y217418D01*
X223986Y217095D01*
X223318Y216582D01*
X222805Y215914D01*
X222482Y215135D01*
X222372Y214300D01*
X222482Y213465D01*
X222805Y212686D01*
X223318Y212018D01*
X223986Y211505D01*
X224765Y211182D01*
X225600Y211072D01*
X226435Y211182D01*
X227214Y211505D01*
X227882Y212018D01*
X228395Y212686D01*
X228718Y213465D01*
X228828Y214300D01*
X228718Y215135D01*
X228395Y215914D01*
X227882Y216582D01*
X227214Y217095D01*
X226435Y217418D01*
X225600Y217528D01*
D02*
G37*
G36*
X27700Y216684D02*
X26746Y216559D01*
X25858Y216191D01*
X25095Y215605D01*
X24509Y214842D01*
X24141Y213954D01*
X24016Y213000D01*
X24141Y212046D01*
X24509Y211158D01*
X25095Y210395D01*
X25858Y209809D01*
X26746Y209441D01*
X27700Y209316D01*
X28654Y209441D01*
X29542Y209809D01*
X30305Y210395D01*
X30891Y211158D01*
X31259Y212046D01*
X31384Y213000D01*
X31259Y213954D01*
X30891Y214842D01*
X30305Y215605D01*
X29542Y216191D01*
X28654Y216559D01*
X27700Y216684D01*
D02*
G37*
G36*
X131200Y211164D02*
Y208200D01*
X134164D01*
X134110Y208614D01*
X133757Y209465D01*
X133196Y210196D01*
X132465Y210757D01*
X131614Y211110D01*
X131200Y211164D01*
D02*
G37*
G36*
X130200D02*
X129786Y211110D01*
X128935Y210757D01*
X128204Y210196D01*
X127643Y209465D01*
X127290Y208614D01*
X127236Y208200D01*
X130200D01*
Y211164D01*
D02*
G37*
G36*
X176178Y212950D02*
X175343Y212840D01*
X174564Y212517D01*
X173896Y212004D01*
X173383Y211336D01*
X173060Y210557D01*
X172950Y209722D01*
X173060Y208887D01*
X173383Y208108D01*
X173896Y207440D01*
X174564Y206927D01*
X175343Y206604D01*
X176178Y206494D01*
X177013Y206604D01*
X177792Y206927D01*
X178460Y207440D01*
X178973Y208108D01*
X179296Y208887D01*
X179406Y209722D01*
X179296Y210557D01*
X178973Y211336D01*
X178460Y212004D01*
X177792Y212517D01*
X177013Y212840D01*
X176178Y212950D01*
D02*
G37*
G36*
X134164Y207200D02*
X131200D01*
Y204236D01*
X131614Y204290D01*
X132465Y204643D01*
X133196Y205204D01*
X133757Y205935D01*
X134110Y206786D01*
X134164Y207200D01*
D02*
G37*
G36*
X130200D02*
X127236D01*
X127290Y206786D01*
X127643Y205935D01*
X128204Y205204D01*
X128935Y204643D01*
X129786Y204290D01*
X130200Y204236D01*
Y207200D01*
D02*
G37*
G36*
X197389Y209739D02*
X196554Y209629D01*
X195775Y209306D01*
X195107Y208793D01*
X194594Y208125D01*
X194271Y207346D01*
X194161Y206511D01*
X194271Y205676D01*
X194594Y204897D01*
X195107Y204229D01*
X195775Y203716D01*
X196554Y203393D01*
X197389Y203283D01*
X198224Y203393D01*
X199003Y203716D01*
X199671Y204229D01*
X200184Y204897D01*
X200507Y205676D01*
X200617Y206511D01*
X200507Y207346D01*
X200184Y208125D01*
X199671Y208793D01*
X199003Y209306D01*
X198224Y209629D01*
X197389Y209739D01*
D02*
G37*
G36*
X215300Y208728D02*
X214465Y208618D01*
X213686Y208295D01*
X213018Y207782D01*
X212505Y207114D01*
X212182Y206335D01*
X212072Y205500D01*
X212182Y204665D01*
X212505Y203886D01*
X213018Y203218D01*
X213686Y202705D01*
X214465Y202382D01*
X215300Y202272D01*
X216135Y202382D01*
X216914Y202705D01*
X217582Y203218D01*
X218095Y203886D01*
X218418Y204665D01*
X218528Y205500D01*
X218418Y206335D01*
X218095Y207114D01*
X217582Y207782D01*
X216914Y208295D01*
X216135Y208618D01*
X215300Y208728D01*
D02*
G37*
G36*
X123700Y206928D02*
X122865Y206818D01*
X122086Y206495D01*
X121418Y205982D01*
X120905Y205314D01*
X120582Y204535D01*
X120472Y203700D01*
X120582Y202865D01*
X120905Y202086D01*
X121418Y201418D01*
X122086Y200905D01*
X122865Y200582D01*
X123700Y200472D01*
X124535Y200582D01*
X125314Y200905D01*
X125982Y201418D01*
X126495Y202086D01*
X126818Y202865D01*
X126928Y203700D01*
X126818Y204535D01*
X126495Y205314D01*
X125982Y205982D01*
X125314Y206495D01*
X124535Y206818D01*
X123700Y206928D01*
D02*
G37*
G36*
X27700Y206684D02*
X26746Y206559D01*
X25858Y206191D01*
X25095Y205605D01*
X24509Y204842D01*
X24141Y203954D01*
X24016Y203000D01*
X24141Y202046D01*
X24509Y201158D01*
X25095Y200395D01*
X25858Y199809D01*
X26746Y199441D01*
X27700Y199316D01*
X28654Y199441D01*
X29542Y199809D01*
X30305Y200395D01*
X30891Y201158D01*
X31259Y202046D01*
X31384Y203000D01*
X31259Y203954D01*
X30891Y204842D01*
X30305Y205605D01*
X29542Y206191D01*
X28654Y206559D01*
X27700Y206684D01*
D02*
G37*
G36*
X107800Y200564D02*
Y197600D01*
X110764D01*
X110710Y198014D01*
X110357Y198865D01*
X109796Y199596D01*
X109065Y200157D01*
X108214Y200510D01*
X107800Y200564D01*
D02*
G37*
G36*
X106800D02*
X106386Y200510D01*
X105535Y200157D01*
X104804Y199596D01*
X104243Y198865D01*
X103890Y198014D01*
X103836Y197600D01*
X106800D01*
Y200564D01*
D02*
G37*
G36*
X110764Y196600D02*
X107800D01*
Y193636D01*
X108214Y193690D01*
X109065Y194043D01*
X109796Y194604D01*
X110357Y195335D01*
X110710Y196186D01*
X110764Y196600D01*
D02*
G37*
G36*
X106800D02*
X103836D01*
X103890Y196186D01*
X104243Y195335D01*
X104804Y194604D01*
X105535Y194043D01*
X106386Y193690D01*
X106800Y193636D01*
Y196600D01*
D02*
G37*
G36*
X245213Y198741D02*
X244378Y198631D01*
X243600Y198309D01*
X242931Y197796D01*
X242418Y197127D01*
X242096Y196349D01*
X241986Y195513D01*
X242096Y194678D01*
X242418Y193900D01*
X242931Y193231D01*
X243600Y192718D01*
X244378Y192396D01*
X245213Y192286D01*
X246049Y192396D01*
X246827Y192718D01*
X247496Y193231D01*
X248009Y193900D01*
X248331Y194678D01*
X248441Y195513D01*
X248331Y196349D01*
X248009Y197127D01*
X247496Y197796D01*
X246827Y198309D01*
X246049Y198631D01*
X245213Y198741D01*
D02*
G37*
G36*
X27700Y196684D02*
X26746Y196559D01*
X25858Y196191D01*
X25095Y195605D01*
X24509Y194842D01*
X24141Y193954D01*
X24016Y193000D01*
X24141Y192046D01*
X24509Y191158D01*
X25095Y190395D01*
X25858Y189809D01*
X26746Y189441D01*
X27700Y189316D01*
X28654Y189441D01*
X29542Y189809D01*
X30305Y190395D01*
X30891Y191158D01*
X31259Y192046D01*
X31384Y193000D01*
X31259Y193954D01*
X30891Y194842D01*
X30305Y195605D01*
X29542Y196191D01*
X28654Y196559D01*
X27700Y196684D01*
D02*
G37*
G36*
Y186684D02*
X26746Y186559D01*
X25858Y186191D01*
X25095Y185605D01*
X24509Y184842D01*
X24141Y183954D01*
X24016Y183000D01*
X24141Y182046D01*
X24509Y181158D01*
X25095Y180395D01*
X25858Y179809D01*
X26746Y179441D01*
X27700Y179316D01*
X28654Y179441D01*
X29542Y179809D01*
X30305Y180395D01*
X30891Y181158D01*
X31259Y182046D01*
X31384Y183000D01*
X31259Y183954D01*
X30891Y184842D01*
X30305Y185605D01*
X29542Y186191D01*
X28654Y186559D01*
X27700Y186684D01*
D02*
G37*
G36*
X153700Y185428D02*
X152865Y185318D01*
X152086Y184995D01*
X151418Y184482D01*
X150905Y183814D01*
X150582Y183035D01*
X150472Y182200D01*
X150582Y181365D01*
X150905Y180586D01*
X151418Y179918D01*
X152086Y179405D01*
X152865Y179082D01*
X153700Y178972D01*
X154535Y179082D01*
X155314Y179405D01*
X155982Y179918D01*
X156495Y180586D01*
X156818Y181365D01*
X156928Y182200D01*
X156818Y183035D01*
X156495Y183814D01*
X155982Y184482D01*
X155314Y184995D01*
X154535Y185318D01*
X153700Y185428D01*
D02*
G37*
G36*
X220461Y184266D02*
X219626Y184156D01*
X218848Y183834D01*
X218179Y183321D01*
X217666Y182652D01*
X217344Y181874D01*
X217234Y181039D01*
X217344Y180203D01*
X217666Y179425D01*
X218179Y178756D01*
X218848Y178243D01*
X219626Y177921D01*
X220461Y177811D01*
X221297Y177921D01*
X222075Y178243D01*
X222744Y178756D01*
X223257Y179425D01*
X223579Y180203D01*
X223689Y181039D01*
X223579Y181874D01*
X223257Y182652D01*
X222744Y183321D01*
X222075Y183834D01*
X221297Y184156D01*
X220461Y184266D01*
D02*
G37*
G36*
X240966Y182928D02*
X240131Y182818D01*
X239352Y182495D01*
X238684Y181982D01*
X238171Y181314D01*
X237848Y180535D01*
X237738Y179700D01*
X237848Y178865D01*
X238171Y178086D01*
X238684Y177418D01*
X239352Y176905D01*
X240131Y176582D01*
X240966Y176472D01*
X241802Y176582D01*
X242580Y176905D01*
X243248Y177418D01*
X243761Y178086D01*
X244084Y178865D01*
X244194Y179700D01*
X244084Y180535D01*
X243761Y181314D01*
X243248Y181982D01*
X242580Y182495D01*
X241802Y182818D01*
X240966Y182928D01*
D02*
G37*
G36*
X262000Y182628D02*
X261165Y182518D01*
X260386Y182195D01*
X259718Y181682D01*
X259205Y181014D01*
X258882Y180235D01*
X258772Y179400D01*
X258882Y178565D01*
X259205Y177786D01*
X259718Y177118D01*
X260386Y176605D01*
X261165Y176282D01*
X262000Y176172D01*
X262835Y176282D01*
X263614Y176605D01*
X264282Y177118D01*
X264795Y177786D01*
X265118Y178565D01*
X265228Y179400D01*
X265118Y180235D01*
X264795Y181014D01*
X264282Y181682D01*
X263614Y182195D01*
X262835Y182518D01*
X262000Y182628D01*
D02*
G37*
G36*
X204900Y181728D02*
X204065Y181618D01*
X203286Y181295D01*
X202618Y180782D01*
X202105Y180114D01*
X201782Y179335D01*
X201672Y178500D01*
X201782Y177665D01*
X202105Y176886D01*
X202618Y176218D01*
X203286Y175705D01*
X204065Y175382D01*
X204900Y175272D01*
X205735Y175382D01*
X206514Y175705D01*
X207182Y176218D01*
X207695Y176886D01*
X208018Y177665D01*
X208128Y178500D01*
X208018Y179335D01*
X207695Y180114D01*
X207182Y180782D01*
X206514Y181295D01*
X205735Y181618D01*
X204900Y181728D01*
D02*
G37*
G36*
X290100Y178828D02*
X289265Y178718D01*
X288486Y178395D01*
X287818Y177882D01*
X287305Y177214D01*
X286982Y176435D01*
X286872Y175600D01*
X286982Y174765D01*
X287305Y173986D01*
X287818Y173318D01*
X288486Y172805D01*
X289265Y172482D01*
X290100Y172372D01*
X290935Y172482D01*
X291714Y172805D01*
X292382Y173318D01*
X292895Y173986D01*
X293218Y174765D01*
X293328Y175600D01*
X293218Y176435D01*
X292895Y177214D01*
X292382Y177882D01*
X291714Y178395D01*
X290935Y178718D01*
X290100Y178828D01*
D02*
G37*
G36*
X182400Y178428D02*
X181565Y178318D01*
X180786Y177995D01*
X180118Y177482D01*
X179605Y176814D01*
X179282Y176035D01*
X179172Y175200D01*
X179282Y174365D01*
X179605Y173586D01*
X180118Y172918D01*
X180786Y172405D01*
X181565Y172082D01*
X182400Y171972D01*
X183235Y172082D01*
X184014Y172405D01*
X184682Y172918D01*
X185195Y173586D01*
X185518Y174365D01*
X185628Y175200D01*
X185518Y176035D01*
X185195Y176814D01*
X184682Y177482D01*
X184014Y177995D01*
X183235Y178318D01*
X182400Y178428D01*
D02*
G37*
G36*
X189400Y174164D02*
Y171200D01*
X192364D01*
X192310Y171614D01*
X191957Y172465D01*
X191396Y173196D01*
X190665Y173757D01*
X189814Y174110D01*
X189400Y174164D01*
D02*
G37*
G36*
X188400D02*
X187986Y174110D01*
X187135Y173757D01*
X186404Y173196D01*
X185843Y172465D01*
X185490Y171614D01*
X185436Y171200D01*
X188400D01*
Y174164D01*
D02*
G37*
G36*
X230654Y177228D02*
X229819Y177118D01*
X229041Y176795D01*
X228372Y176282D01*
X227859Y175614D01*
X227537Y174835D01*
X227427Y174000D01*
X227537Y173165D01*
X227859Y172386D01*
X228372Y171718D01*
X229041Y171205D01*
X229819Y170882D01*
X230654Y170772D01*
X231490Y170882D01*
X232268Y171205D01*
X232937Y171718D01*
X233450Y172386D01*
X233772Y173165D01*
X233882Y174000D01*
X233772Y174835D01*
X233450Y175614D01*
X232937Y176282D01*
X232268Y176795D01*
X231490Y177118D01*
X230654Y177228D01*
D02*
G37*
G36*
X141200Y176528D02*
X140365Y176418D01*
X139586Y176095D01*
X138918Y175582D01*
X138405Y174914D01*
X138082Y174135D01*
X137972Y173300D01*
X138082Y172465D01*
X138405Y171686D01*
X138918Y171018D01*
X139586Y170505D01*
X140365Y170182D01*
X141200Y170072D01*
X142035Y170182D01*
X142814Y170505D01*
X143482Y171018D01*
X143995Y171686D01*
X144318Y172465D01*
X144428Y173300D01*
X144318Y174135D01*
X143995Y174914D01*
X143482Y175582D01*
X142814Y176095D01*
X142035Y176418D01*
X141200Y176528D01*
D02*
G37*
G36*
X27700Y176684D02*
X26746Y176559D01*
X25858Y176191D01*
X25095Y175605D01*
X24509Y174842D01*
X24141Y173954D01*
X24016Y173000D01*
X24141Y172046D01*
X24509Y171158D01*
X25095Y170395D01*
X25858Y169809D01*
X26746Y169441D01*
X27700Y169316D01*
X28654Y169441D01*
X29542Y169809D01*
X30305Y170395D01*
X30891Y171158D01*
X31259Y172046D01*
X31384Y173000D01*
X31259Y173954D01*
X30891Y174842D01*
X30305Y175605D01*
X29542Y176191D01*
X28654Y176559D01*
X27700Y176684D01*
D02*
G37*
G36*
X192364Y170200D02*
X189400D01*
Y167236D01*
X189814Y167290D01*
X190665Y167643D01*
X191396Y168204D01*
X191957Y168935D01*
X192310Y169786D01*
X192364Y170200D01*
D02*
G37*
G36*
X188400D02*
X185436D01*
X185490Y169786D01*
X185843Y168935D01*
X186404Y168204D01*
X187135Y167643D01*
X187986Y167290D01*
X188400Y167236D01*
Y170200D01*
D02*
G37*
G36*
X171740Y173428D02*
X170905Y173318D01*
X170126Y172995D01*
X169458Y172482D01*
X168945Y171814D01*
X168623Y171035D01*
X168513Y170200D01*
X168623Y169365D01*
X168945Y168586D01*
X169458Y167918D01*
X170126Y167405D01*
X170905Y167082D01*
X171740Y166972D01*
X172575Y167082D01*
X173354Y167405D01*
X174022Y167918D01*
X174535Y168586D01*
X174858Y169365D01*
X174968Y170200D01*
X174858Y171035D01*
X174535Y171814D01*
X174022Y172482D01*
X173354Y172995D01*
X172575Y173318D01*
X171740Y173428D01*
D02*
G37*
G36*
X27700Y166684D02*
X26746Y166559D01*
X25858Y166191D01*
X25095Y165605D01*
X24509Y164842D01*
X24141Y163954D01*
X24016Y163000D01*
X24141Y162046D01*
X24509Y161158D01*
X25095Y160395D01*
X25858Y159809D01*
X26746Y159441D01*
X27700Y159316D01*
X28654Y159441D01*
X29542Y159809D01*
X30305Y160395D01*
X30891Y161158D01*
X31259Y162046D01*
X31384Y163000D01*
X31259Y163954D01*
X30891Y164842D01*
X30305Y165605D01*
X29542Y166191D01*
X28654Y166559D01*
X27700Y166684D01*
D02*
G37*
G36*
X344000Y164328D02*
X343165Y164218D01*
X342386Y163895D01*
X341718Y163382D01*
X341205Y162714D01*
X340882Y161935D01*
X340772Y161100D01*
X340882Y160265D01*
X341205Y159486D01*
X341718Y158818D01*
X342386Y158305D01*
X343165Y157982D01*
X344000Y157872D01*
X344835Y157982D01*
X345614Y158305D01*
X346282Y158818D01*
X346795Y159486D01*
X347118Y160265D01*
X347228Y161100D01*
X347118Y161935D01*
X346795Y162714D01*
X346282Y163382D01*
X345614Y163895D01*
X344835Y164218D01*
X344000Y164328D01*
D02*
G37*
G36*
X203600Y164228D02*
X202765Y164118D01*
X201986Y163795D01*
X201318Y163282D01*
X200805Y162614D01*
X200482Y161835D01*
X200372Y161000D01*
X200482Y160165D01*
X200805Y159386D01*
X201318Y158718D01*
X201986Y158205D01*
X202765Y157882D01*
X203600Y157772D01*
X204435Y157882D01*
X205214Y158205D01*
X205882Y158718D01*
X206395Y159386D01*
X206718Y160165D01*
X206828Y161000D01*
X206718Y161835D01*
X206395Y162614D01*
X205882Y163282D01*
X205214Y163795D01*
X204435Y164118D01*
X203600Y164228D01*
D02*
G37*
G36*
X380300Y162384D02*
X379346Y162259D01*
X378458Y161891D01*
X377695Y161305D01*
X377109Y160542D01*
X376741Y159654D01*
X376616Y158700D01*
X376741Y157746D01*
X377109Y156858D01*
X377695Y156095D01*
X378458Y155509D01*
X379346Y155141D01*
X380300Y155016D01*
X381254Y155141D01*
X382142Y155509D01*
X382905Y156095D01*
X383491Y156858D01*
X383859Y157746D01*
X383984Y158700D01*
X383859Y159654D01*
X383491Y160542D01*
X382905Y161305D01*
X382142Y161891D01*
X381254Y162259D01*
X380300Y162384D01*
D02*
G37*
G36*
X261000Y159528D02*
X260165Y159418D01*
X259386Y159095D01*
X258718Y158582D01*
X258205Y157914D01*
X257882Y157135D01*
X257772Y156300D01*
X257882Y155465D01*
X258205Y154686D01*
X258718Y154018D01*
X259386Y153505D01*
X260165Y153182D01*
X261000Y153072D01*
X261835Y153182D01*
X262614Y153505D01*
X263282Y154018D01*
X263795Y154686D01*
X264118Y155465D01*
X264228Y156300D01*
X264118Y157135D01*
X263795Y157914D01*
X263282Y158582D01*
X262614Y159095D01*
X261835Y159418D01*
X261000Y159528D01*
D02*
G37*
G36*
X27700Y156684D02*
X26746Y156559D01*
X25858Y156191D01*
X25095Y155605D01*
X24509Y154842D01*
X24141Y153954D01*
X24016Y153000D01*
X24141Y152046D01*
X24509Y151158D01*
X25095Y150395D01*
X25858Y149809D01*
X26746Y149441D01*
X27700Y149316D01*
X28654Y149441D01*
X29542Y149809D01*
X30305Y150395D01*
X30891Y151158D01*
X31259Y152046D01*
X31384Y153000D01*
X31259Y153954D01*
X30891Y154842D01*
X30305Y155605D01*
X29542Y156191D01*
X28654Y156559D01*
X27700Y156684D01*
D02*
G37*
G36*
X343500Y154328D02*
X342665Y154218D01*
X341886Y153895D01*
X341218Y153382D01*
X340705Y152714D01*
X340382Y151935D01*
X340272Y151100D01*
X340382Y150265D01*
X340705Y149486D01*
X341218Y148818D01*
X341886Y148305D01*
X342665Y147982D01*
X343500Y147872D01*
X344335Y147982D01*
X345114Y148305D01*
X345782Y148818D01*
X346295Y149486D01*
X346618Y150265D01*
X346728Y151100D01*
X346618Y151935D01*
X346295Y152714D01*
X345782Y153382D01*
X345114Y153895D01*
X344335Y154218D01*
X343500Y154328D01*
D02*
G37*
G36*
X380300Y152384D02*
X379346Y152259D01*
X378458Y151891D01*
X377695Y151305D01*
X377109Y150542D01*
X376741Y149654D01*
X376616Y148700D01*
X376741Y147746D01*
X377109Y146858D01*
X377695Y146095D01*
X378458Y145509D01*
X379346Y145141D01*
X380300Y145016D01*
X381254Y145141D01*
X382142Y145509D01*
X382905Y146095D01*
X383491Y146858D01*
X383859Y147746D01*
X383984Y148700D01*
X383859Y149654D01*
X383491Y150542D01*
X382905Y151305D01*
X382142Y151891D01*
X381254Y152259D01*
X380300Y152384D01*
D02*
G37*
G36*
X208000Y149728D02*
X207165Y149618D01*
X206386Y149295D01*
X205718Y148782D01*
X205205Y148114D01*
X204882Y147335D01*
X204772Y146500D01*
X204882Y145665D01*
X205205Y144886D01*
X205718Y144218D01*
X206386Y143705D01*
X207165Y143382D01*
X208000Y143272D01*
X208835Y143382D01*
X209614Y143705D01*
X210282Y144218D01*
X210795Y144886D01*
X211118Y145665D01*
X211228Y146500D01*
X211118Y147335D01*
X210795Y148114D01*
X210282Y148782D01*
X209614Y149295D01*
X208835Y149618D01*
X208000Y149728D01*
D02*
G37*
G36*
X180300D02*
X179465Y149618D01*
X178686Y149295D01*
X178018Y148782D01*
X177505Y148114D01*
X177182Y147335D01*
X177072Y146500D01*
X177182Y145665D01*
X177505Y144886D01*
X178018Y144218D01*
X178686Y143705D01*
X179465Y143382D01*
X180300Y143272D01*
X181135Y143382D01*
X181914Y143705D01*
X182582Y144218D01*
X183095Y144886D01*
X183418Y145665D01*
X183528Y146500D01*
X183418Y147335D01*
X183095Y148114D01*
X182582Y148782D01*
X181914Y149295D01*
X181135Y149618D01*
X180300Y149728D01*
D02*
G37*
G36*
X234700Y149628D02*
X233865Y149518D01*
X233086Y149195D01*
X232418Y148682D01*
X231905Y148014D01*
X231582Y147235D01*
X231472Y146400D01*
X231582Y145565D01*
X231905Y144786D01*
X232418Y144118D01*
X233086Y143605D01*
X233865Y143282D01*
X234700Y143172D01*
X235535Y143282D01*
X236314Y143605D01*
X236982Y144118D01*
X237495Y144786D01*
X237818Y145565D01*
X237928Y146400D01*
X237818Y147235D01*
X237495Y148014D01*
X236982Y148682D01*
X236314Y149195D01*
X235535Y149518D01*
X234700Y149628D01*
D02*
G37*
G36*
X27700Y146684D02*
X26746Y146559D01*
X25858Y146191D01*
X25095Y145605D01*
X24509Y144842D01*
X24141Y143954D01*
X24016Y143000D01*
X24141Y142046D01*
X24509Y141158D01*
X25095Y140395D01*
X25858Y139809D01*
X26746Y139441D01*
X27700Y139316D01*
X28654Y139441D01*
X29542Y139809D01*
X30305Y140395D01*
X30891Y141158D01*
X31259Y142046D01*
X31384Y143000D01*
X31259Y143954D01*
X30891Y144842D01*
X30305Y145605D01*
X29542Y146191D01*
X28654Y146559D01*
X27700Y146684D01*
D02*
G37*
G36*
X343000Y142728D02*
X342165Y142618D01*
X341386Y142295D01*
X340718Y141782D01*
X340205Y141114D01*
X339882Y140335D01*
X339772Y139500D01*
X339882Y138665D01*
X340205Y137886D01*
X340718Y137218D01*
X341386Y136705D01*
X342165Y136382D01*
X343000Y136272D01*
X343835Y136382D01*
X344614Y136705D01*
X345282Y137218D01*
X345795Y137886D01*
X346118Y138665D01*
X346228Y139500D01*
X346118Y140335D01*
X345795Y141114D01*
X345282Y141782D01*
X344614Y142295D01*
X343835Y142618D01*
X343000Y142728D01*
D02*
G37*
G36*
X380300Y142384D02*
X379346Y142259D01*
X378458Y141891D01*
X377695Y141305D01*
X377109Y140542D01*
X376741Y139654D01*
X376616Y138700D01*
X376741Y137746D01*
X377109Y136858D01*
X377695Y136095D01*
X378458Y135509D01*
X379346Y135141D01*
X380300Y135016D01*
X381254Y135141D01*
X382142Y135509D01*
X382905Y136095D01*
X383491Y136858D01*
X383859Y137746D01*
X383984Y138700D01*
X383859Y139654D01*
X383491Y140542D01*
X382905Y141305D01*
X382142Y141891D01*
X381254Y142259D01*
X380300Y142384D01*
D02*
G37*
G36*
X27700Y136684D02*
X26746Y136559D01*
X25858Y136191D01*
X25095Y135605D01*
X24509Y134842D01*
X24141Y133954D01*
X24016Y133000D01*
X24141Y132046D01*
X24509Y131158D01*
X25095Y130395D01*
X25858Y129809D01*
X26746Y129441D01*
X27700Y129316D01*
X28654Y129441D01*
X29542Y129809D01*
X30305Y130395D01*
X30891Y131158D01*
X31259Y132046D01*
X31384Y133000D01*
X31259Y133954D01*
X30891Y134842D01*
X30305Y135605D01*
X29542Y136191D01*
X28654Y136559D01*
X27700Y136684D01*
D02*
G37*
G36*
X380300Y132384D02*
X379346Y132259D01*
X378458Y131891D01*
X377695Y131305D01*
X377109Y130542D01*
X376741Y129654D01*
X376616Y128700D01*
X376741Y127746D01*
X377109Y126858D01*
X377695Y126095D01*
X378458Y125509D01*
X379346Y125141D01*
X380300Y125016D01*
X381254Y125141D01*
X382142Y125509D01*
X382905Y126095D01*
X383491Y126858D01*
X383859Y127746D01*
X383984Y128700D01*
X383859Y129654D01*
X383491Y130542D01*
X382905Y131305D01*
X382142Y131891D01*
X381254Y132259D01*
X380300Y132384D01*
D02*
G37*
G36*
X343500Y131028D02*
X342665Y130918D01*
X341886Y130595D01*
X341218Y130082D01*
X340705Y129414D01*
X340382Y128635D01*
X340272Y127800D01*
X340382Y126965D01*
X340705Y126186D01*
X341218Y125518D01*
X341886Y125005D01*
X342665Y124682D01*
X343500Y124572D01*
X344335Y124682D01*
X345114Y125005D01*
X345782Y125518D01*
X346295Y126186D01*
X346618Y126965D01*
X346728Y127800D01*
X346618Y128635D01*
X346295Y129414D01*
X345782Y130082D01*
X345114Y130595D01*
X344335Y130918D01*
X343500Y131028D01*
D02*
G37*
G36*
X31353Y126653D02*
X24047D01*
Y119347D01*
X31353D01*
Y126653D01*
D02*
G37*
G36*
X239142Y126742D02*
X230458D01*
Y118058D01*
X239142D01*
Y126742D01*
D02*
G37*
G36*
X214800Y126779D02*
X213667Y126630D01*
X212610Y126192D01*
X211703Y125497D01*
X211007Y124590D01*
X210570Y123533D01*
X210421Y122400D01*
X210570Y121267D01*
X211007Y120210D01*
X211703Y119303D01*
X212610Y118607D01*
X213667Y118170D01*
X214800Y118021D01*
X215933Y118170D01*
X216990Y118607D01*
X217897Y119303D01*
X218593Y120210D01*
X219030Y121267D01*
X219179Y122400D01*
X219030Y123533D01*
X218593Y124590D01*
X217897Y125497D01*
X216990Y126192D01*
X215933Y126630D01*
X214800Y126779D01*
D02*
G37*
G36*
X380300Y122384D02*
X379346Y122259D01*
X378458Y121891D01*
X377695Y121305D01*
X377109Y120542D01*
X376741Y119654D01*
X376616Y118700D01*
X376741Y117746D01*
X377109Y116858D01*
X377695Y116095D01*
X378458Y115509D01*
X379346Y115141D01*
X380300Y115016D01*
X381254Y115141D01*
X382142Y115509D01*
X382905Y116095D01*
X383491Y116858D01*
X383859Y117746D01*
X383984Y118700D01*
X383859Y119654D01*
X383491Y120542D01*
X382905Y121305D01*
X382142Y121891D01*
X381254Y122259D01*
X380300Y122384D01*
D02*
G37*
G36*
X88200Y111664D02*
Y108700D01*
X91164D01*
X91110Y109114D01*
X90757Y109965D01*
X90196Y110696D01*
X89465Y111257D01*
X88614Y111610D01*
X88200Y111664D01*
D02*
G37*
G36*
X87200D02*
X86786Y111610D01*
X85935Y111257D01*
X85204Y110696D01*
X84643Y109965D01*
X84290Y109114D01*
X84236Y108700D01*
X87200D01*
Y111664D01*
D02*
G37*
G36*
X383953Y112353D02*
X376647D01*
Y105047D01*
X383953D01*
Y112353D01*
D02*
G37*
G36*
X91164Y107700D02*
X88200D01*
Y104736D01*
X88614Y104790D01*
X89465Y105143D01*
X90196Y105704D01*
X90757Y106435D01*
X91110Y107286D01*
X91164Y107700D01*
D02*
G37*
G36*
X87200D02*
X84236D01*
X84290Y107286D01*
X84643Y106435D01*
X85204Y105704D01*
X85935Y105143D01*
X86786Y104790D01*
X87200Y104736D01*
Y107700D01*
D02*
G37*
G36*
X105600Y95228D02*
X104765Y95118D01*
X103986Y94795D01*
X103318Y94282D01*
X102805Y93614D01*
X102482Y92835D01*
X102372Y92000D01*
X102482Y91165D01*
X102805Y90386D01*
X103318Y89718D01*
X103986Y89205D01*
X104765Y88882D01*
X105600Y88772D01*
X106435Y88882D01*
X107214Y89205D01*
X107882Y89718D01*
X108395Y90386D01*
X108718Y91165D01*
X108828Y92000D01*
X108718Y92835D01*
X108395Y93614D01*
X107882Y94282D01*
X107214Y94795D01*
X106435Y95118D01*
X105600Y95228D01*
D02*
G37*
G36*
X22400Y84828D02*
X21565Y84718D01*
X20786Y84395D01*
X20118Y83882D01*
X19605Y83214D01*
X19282Y82435D01*
X19172Y81600D01*
X19282Y80765D01*
X19605Y79986D01*
X20118Y79318D01*
X20786Y78805D01*
X21565Y78482D01*
X22400Y78372D01*
X23235Y78482D01*
X24014Y78805D01*
X24682Y79318D01*
X25195Y79986D01*
X25518Y80765D01*
X25628Y81600D01*
X25518Y82435D01*
X25195Y83214D01*
X24682Y83882D01*
X24014Y84395D01*
X23235Y84718D01*
X22400Y84828D01*
D02*
G37*
G36*
X364442Y74670D02*
X363607Y74560D01*
X362829Y74238D01*
X362160Y73725D01*
X361647Y73056D01*
X361325Y72278D01*
X361215Y71443D01*
X361325Y70607D01*
X361647Y69829D01*
X362160Y69160D01*
X362829Y68647D01*
X363607Y68325D01*
X364442Y68215D01*
X365278Y68325D01*
X366056Y68647D01*
X366725Y69160D01*
X367238Y69829D01*
X367560Y70607D01*
X367670Y71443D01*
X367560Y72278D01*
X367238Y73056D01*
X366725Y73725D01*
X366056Y74238D01*
X365278Y74560D01*
X364442Y74670D01*
D02*
G37*
G36*
X107400Y62928D02*
X106565Y62818D01*
X105786Y62495D01*
X105118Y61982D01*
X104605Y61314D01*
X104282Y60535D01*
X104172Y59700D01*
X104282Y58865D01*
X104605Y58086D01*
X105118Y57418D01*
X105786Y56905D01*
X106565Y56582D01*
X107400Y56472D01*
X108235Y56582D01*
X109014Y56905D01*
X109682Y57418D01*
X110195Y58086D01*
X110518Y58865D01*
X110628Y59700D01*
X110518Y60535D01*
X110195Y61314D01*
X109682Y61982D01*
X109014Y62495D01*
X108235Y62818D01*
X107400Y62928D01*
D02*
G37*
G36*
X213100Y42521D02*
Y39100D01*
X216521D01*
X216451Y39632D01*
X216053Y40593D01*
X215419Y41419D01*
X214593Y42053D01*
X213632Y42451D01*
X213100Y42521D01*
D02*
G37*
G36*
X212100D02*
X211568Y42451D01*
X210607Y42053D01*
X209781Y41419D01*
X209147Y40593D01*
X208749Y39632D01*
X208679Y39100D01*
X212100D01*
Y42521D01*
D02*
G37*
G36*
X236253Y42253D02*
X228947D01*
Y34947D01*
X236253D01*
Y42253D01*
D02*
G37*
G36*
X222600Y42284D02*
X221646Y42159D01*
X220758Y41791D01*
X219995Y41205D01*
X219409Y40442D01*
X219041Y39554D01*
X218916Y38600D01*
X219041Y37646D01*
X219409Y36758D01*
X219995Y35995D01*
X220758Y35409D01*
X221646Y35041D01*
X222600Y34916D01*
X223554Y35041D01*
X224442Y35409D01*
X225205Y35995D01*
X225791Y36758D01*
X226159Y37646D01*
X226284Y38600D01*
X226159Y39554D01*
X225791Y40442D01*
X225205Y41205D01*
X224442Y41791D01*
X223554Y42159D01*
X222600Y42284D01*
D02*
G37*
G36*
X202600D02*
X201646Y42159D01*
X200758Y41791D01*
X199995Y41205D01*
X199409Y40442D01*
X199041Y39554D01*
X198916Y38600D01*
X199041Y37646D01*
X199409Y36758D01*
X199995Y35995D01*
X200758Y35409D01*
X201646Y35041D01*
X202600Y34916D01*
X203554Y35041D01*
X204442Y35409D01*
X205205Y35995D01*
X205791Y36758D01*
X206159Y37646D01*
X206284Y38600D01*
X206159Y39554D01*
X205791Y40442D01*
X205205Y41205D01*
X204442Y41791D01*
X203554Y42159D01*
X202600Y42284D01*
D02*
G37*
G36*
X216521Y38100D02*
X213100D01*
Y34679D01*
X213632Y34749D01*
X214593Y35147D01*
X215419Y35781D01*
X216053Y36607D01*
X216451Y37568D01*
X216521Y38100D01*
D02*
G37*
G36*
X212100D02*
X208679D01*
X208749Y37568D01*
X209147Y36607D01*
X209781Y35781D01*
X210607Y35147D01*
X211568Y34749D01*
X212100Y34679D01*
Y38100D01*
D02*
G37*
G36*
X213000Y25121D02*
Y21700D01*
X216421D01*
X216351Y22232D01*
X215953Y23193D01*
X215319Y24019D01*
X214493Y24653D01*
X213532Y25051D01*
X213000Y25121D01*
D02*
G37*
G36*
X212000D02*
X211468Y25051D01*
X210507Y24653D01*
X209681Y24019D01*
X209047Y23193D01*
X208649Y22232D01*
X208579Y21700D01*
X212000D01*
Y25121D01*
D02*
G37*
G36*
X236153Y24853D02*
X228847D01*
Y17547D01*
X236153D01*
Y24853D01*
D02*
G37*
G36*
X222500Y24884D02*
X221546Y24759D01*
X220658Y24391D01*
X219895Y23805D01*
X219309Y23042D01*
X218941Y22154D01*
X218816Y21200D01*
X218941Y20246D01*
X219309Y19358D01*
X219895Y18595D01*
X220658Y18009D01*
X221546Y17641D01*
X222500Y17516D01*
X223454Y17641D01*
X224342Y18009D01*
X225105Y18595D01*
X225691Y19358D01*
X226059Y20246D01*
X226184Y21200D01*
X226059Y22154D01*
X225691Y23042D01*
X225105Y23805D01*
X224342Y24391D01*
X223454Y24759D01*
X222500Y24884D01*
D02*
G37*
G36*
X202500D02*
X201546Y24759D01*
X200658Y24391D01*
X199895Y23805D01*
X199309Y23042D01*
X198941Y22154D01*
X198816Y21200D01*
X198941Y20246D01*
X199309Y19358D01*
X199895Y18595D01*
X200658Y18009D01*
X201546Y17641D01*
X202500Y17516D01*
X203454Y17641D01*
X204342Y18009D01*
X205105Y18595D01*
X205691Y19358D01*
X206059Y20246D01*
X206184Y21200D01*
X206059Y22154D01*
X205691Y23042D01*
X205105Y23805D01*
X204342Y24391D01*
X203454Y24759D01*
X202500Y24884D01*
D02*
G37*
G36*
X216421Y20700D02*
X213000D01*
Y17279D01*
X213532Y17349D01*
X214493Y17747D01*
X215319Y18381D01*
X215953Y19207D01*
X216351Y20168D01*
X216421Y20700D01*
D02*
G37*
G36*
X212000D02*
X208579D01*
X208649Y20168D01*
X209047Y19207D01*
X209681Y18381D01*
X210507Y17747D01*
X211468Y17349D01*
X212000Y17279D01*
Y20700D01*
D02*
G37*
G36*
X15300Y25315D02*
X13619Y25150D01*
X12003Y24660D01*
X10514Y23864D01*
X9208Y22792D01*
X8136Y21486D01*
X7340Y19997D01*
X6850Y18381D01*
X6684Y16700D01*
X6850Y15019D01*
X7340Y13403D01*
X8136Y11913D01*
X9208Y10608D01*
X10514Y9537D01*
X12003Y8740D01*
X13619Y8250D01*
X15300Y8084D01*
X16981Y8250D01*
X18597Y8740D01*
X20087Y9537D01*
X21392Y10608D01*
X22464Y11913D01*
X23260Y13403D01*
X23750Y15019D01*
X23915Y16700D01*
X23750Y18381D01*
X23260Y19997D01*
X22464Y21486D01*
X21392Y22792D01*
X20087Y23864D01*
X18597Y24660D01*
X16981Y25150D01*
X15300Y25315D01*
D02*
G37*
G36*
X360100Y23315D02*
X358419Y23150D01*
X356803Y22660D01*
X355313Y21863D01*
X354008Y20792D01*
X352937Y19487D01*
X352140Y17997D01*
X351650Y16381D01*
X351484Y14700D01*
X351650Y13019D01*
X352140Y11403D01*
X352937Y9913D01*
X354008Y8608D01*
X355313Y7536D01*
X356803Y6740D01*
X358419Y6250D01*
X360100Y6084D01*
X361781Y6250D01*
X363397Y6740D01*
X364886Y7536D01*
X366192Y8608D01*
X367264Y9913D01*
X368060Y11403D01*
X368550Y13019D01*
X368716Y14700D01*
X368550Y16381D01*
X368060Y17997D01*
X367264Y19487D01*
X366192Y20792D01*
X364886Y21863D01*
X363397Y22660D01*
X361781Y23150D01*
X360100Y23315D01*
D02*
G37*
G36*
X178253Y387253D02*
X170947D01*
Y379947D01*
X178253D01*
Y387253D01*
D02*
G37*
G36*
X244600Y387284D02*
X243646Y387159D01*
X242758Y386791D01*
X241995Y386205D01*
X241409Y385442D01*
X241041Y384554D01*
X240916Y383600D01*
X241041Y382646D01*
X241409Y381758D01*
X241995Y380995D01*
X242758Y380409D01*
X243646Y380041D01*
X244600Y379916D01*
X245554Y380041D01*
X246442Y380409D01*
X247205Y380995D01*
X247791Y381758D01*
X248159Y382646D01*
X248284Y383600D01*
X248159Y384554D01*
X247791Y385442D01*
X247205Y386205D01*
X246442Y386791D01*
X245554Y387159D01*
X244600Y387284D01*
D02*
G37*
G36*
X234600D02*
X233646Y387159D01*
X232758Y386791D01*
X231995Y386205D01*
X231409Y385442D01*
X231041Y384554D01*
X230916Y383600D01*
X231041Y382646D01*
X231409Y381758D01*
X231995Y380995D01*
X232758Y380409D01*
X233646Y380041D01*
X234600Y379916D01*
X235554Y380041D01*
X236442Y380409D01*
X237205Y380995D01*
X237791Y381758D01*
X238159Y382646D01*
X238284Y383600D01*
X238159Y384554D01*
X237791Y385442D01*
X237205Y386205D01*
X236442Y386791D01*
X235554Y387159D01*
X234600Y387284D01*
D02*
G37*
G36*
X224600D02*
X223646Y387159D01*
X222758Y386791D01*
X221995Y386205D01*
X221409Y385442D01*
X221041Y384554D01*
X220916Y383600D01*
X221041Y382646D01*
X221409Y381758D01*
X221995Y380995D01*
X222758Y380409D01*
X223646Y380041D01*
X224600Y379916D01*
X225554Y380041D01*
X226442Y380409D01*
X227205Y380995D01*
X227791Y381758D01*
X228159Y382646D01*
X228284Y383600D01*
X228159Y384554D01*
X227791Y385442D01*
X227205Y386205D01*
X226442Y386791D01*
X225554Y387159D01*
X224600Y387284D01*
D02*
G37*
G36*
X214600D02*
X213646Y387159D01*
X212758Y386791D01*
X211995Y386205D01*
X211409Y385442D01*
X211041Y384554D01*
X210916Y383600D01*
X211041Y382646D01*
X211409Y381758D01*
X211995Y380995D01*
X212758Y380409D01*
X213646Y380041D01*
X214600Y379916D01*
X215554Y380041D01*
X216442Y380409D01*
X217205Y380995D01*
X217791Y381758D01*
X218159Y382646D01*
X218284Y383600D01*
X218159Y384554D01*
X217791Y385442D01*
X217205Y386205D01*
X216442Y386791D01*
X215554Y387159D01*
X214600Y387284D01*
D02*
G37*
G36*
X204600D02*
X203646Y387159D01*
X202758Y386791D01*
X201995Y386205D01*
X201409Y385442D01*
X201041Y384554D01*
X200916Y383600D01*
X201041Y382646D01*
X201409Y381758D01*
X201995Y380995D01*
X202758Y380409D01*
X203646Y380041D01*
X204600Y379916D01*
X205554Y380041D01*
X206442Y380409D01*
X207205Y380995D01*
X207791Y381758D01*
X208159Y382646D01*
X208284Y383600D01*
X208159Y384554D01*
X207791Y385442D01*
X207205Y386205D01*
X206442Y386791D01*
X205554Y387159D01*
X204600Y387284D01*
D02*
G37*
G36*
X194600D02*
X193646Y387159D01*
X192758Y386791D01*
X191995Y386205D01*
X191409Y385442D01*
X191041Y384554D01*
X190916Y383600D01*
X191041Y382646D01*
X191409Y381758D01*
X191995Y380995D01*
X192758Y380409D01*
X193646Y380041D01*
X194600Y379916D01*
X195554Y380041D01*
X196442Y380409D01*
X197205Y380995D01*
X197791Y381758D01*
X198159Y382646D01*
X198284Y383600D01*
X198159Y384554D01*
X197791Y385442D01*
X197205Y386205D01*
X196442Y386791D01*
X195554Y387159D01*
X194600Y387284D01*
D02*
G37*
G36*
X184600D02*
X183646Y387159D01*
X182758Y386791D01*
X181995Y386205D01*
X181409Y385442D01*
X181041Y384554D01*
X180916Y383600D01*
X181041Y382646D01*
X181409Y381758D01*
X181995Y380995D01*
X182758Y380409D01*
X183646Y380041D01*
X184600Y379916D01*
X185554Y380041D01*
X186442Y380409D01*
X187205Y380995D01*
X187791Y381758D01*
X188159Y382646D01*
X188284Y383600D01*
X188159Y384554D01*
X187791Y385442D01*
X187205Y386205D01*
X186442Y386791D01*
X185554Y387159D01*
X184600Y387284D01*
D02*
G37*
G36*
X362200Y392515D02*
X360519Y392350D01*
X358903Y391860D01*
X357414Y391063D01*
X356108Y389992D01*
X355036Y388686D01*
X354240Y387197D01*
X353750Y385581D01*
X353585Y383900D01*
X353750Y382219D01*
X354240Y380603D01*
X355036Y379114D01*
X356108Y377808D01*
X357414Y376736D01*
X358903Y375940D01*
X360519Y375450D01*
X362200Y375285D01*
X363881Y375450D01*
X365497Y375940D01*
X366986Y376736D01*
X368292Y377808D01*
X369363Y379114D01*
X370160Y380603D01*
X370650Y382219D01*
X370815Y383900D01*
X370650Y385581D01*
X370160Y387197D01*
X369363Y388686D01*
X368292Y389992D01*
X366986Y391063D01*
X365497Y391860D01*
X363881Y392350D01*
X362200Y392515D01*
D02*
G37*
G36*
X15500D02*
X13819Y392350D01*
X12203Y391860D01*
X10713Y391063D01*
X9408Y389992D01*
X8337Y388686D01*
X7540Y387197D01*
X7050Y385581D01*
X6884Y383900D01*
X7050Y382219D01*
X7540Y380603D01*
X8337Y379114D01*
X9408Y377808D01*
X10713Y376736D01*
X12203Y375940D01*
X13819Y375450D01*
X15500Y375285D01*
X17181Y375450D01*
X18797Y375940D01*
X20287Y376736D01*
X21592Y377808D01*
X22663Y379114D01*
X23460Y380603D01*
X23950Y382219D01*
X24115Y383900D01*
X23950Y385581D01*
X23460Y387197D01*
X22663Y388686D01*
X21592Y389992D01*
X20287Y391063D01*
X18797Y391860D01*
X17181Y392350D01*
X15500Y392515D01*
D02*
G37*
G36*
X109800Y345428D02*
X108965Y345318D01*
X108186Y344995D01*
X107518Y344482D01*
X107005Y343814D01*
X106682Y343035D01*
X106572Y342200D01*
X106682Y341365D01*
X107005Y340586D01*
X107518Y339918D01*
X108186Y339405D01*
X108965Y339082D01*
X109800Y338972D01*
X110635Y339082D01*
X111414Y339405D01*
X112082Y339918D01*
X112595Y340586D01*
X112918Y341365D01*
X113028Y342200D01*
X112918Y343035D01*
X112595Y343814D01*
X112082Y344482D01*
X111414Y344995D01*
X110635Y345318D01*
X109800Y345428D01*
D02*
G37*
G36*
X8000Y336528D02*
X7165Y336418D01*
X6386Y336095D01*
X5718Y335582D01*
X5205Y334914D01*
X4882Y334135D01*
X4772Y333300D01*
X4882Y332465D01*
X5205Y331686D01*
X5718Y331018D01*
X6386Y330505D01*
X7165Y330182D01*
X8000Y330072D01*
X8835Y330182D01*
X9614Y330505D01*
X10282Y331018D01*
X10795Y331686D01*
X11118Y332465D01*
X11228Y333300D01*
X11118Y334135D01*
X10795Y334914D01*
X10282Y335582D01*
X9614Y336095D01*
X8835Y336418D01*
X8000Y336528D01*
D02*
G37*
G36*
X267700Y332328D02*
X266865Y332218D01*
X266086Y331895D01*
X265418Y331382D01*
X264905Y330714D01*
X264582Y329935D01*
X264472Y329100D01*
X264582Y328265D01*
X264905Y327486D01*
X265418Y326818D01*
X266086Y326305D01*
X266865Y325982D01*
X267700Y325872D01*
X268535Y325982D01*
X269314Y326305D01*
X269982Y326818D01*
X270495Y327486D01*
X270818Y328265D01*
X270928Y329100D01*
X270818Y329935D01*
X270495Y330714D01*
X269982Y331382D01*
X269314Y331895D01*
X268535Y332218D01*
X267700Y332328D01*
D02*
G37*
G36*
X257500Y331728D02*
X256665Y331618D01*
X255886Y331295D01*
X255218Y330782D01*
X254705Y330114D01*
X254382Y329335D01*
X254272Y328500D01*
X254382Y327665D01*
X254705Y326886D01*
X255218Y326218D01*
X255886Y325705D01*
X256665Y325382D01*
X257500Y325272D01*
X258335Y325382D01*
X259114Y325705D01*
X259782Y326218D01*
X260295Y326886D01*
X260618Y327665D01*
X260728Y328500D01*
X260618Y329335D01*
X260295Y330114D01*
X259782Y330782D01*
X259114Y331295D01*
X258335Y331618D01*
X257500Y331728D01*
D02*
G37*
G36*
X104900Y324228D02*
X104065Y324118D01*
X103286Y323795D01*
X102618Y323282D01*
X102105Y322614D01*
X101782Y321835D01*
X101672Y321000D01*
X101782Y320165D01*
X102105Y319386D01*
X102618Y318718D01*
X103286Y318205D01*
X104065Y317882D01*
X104900Y317772D01*
X105735Y317882D01*
X106514Y318205D01*
X107182Y318718D01*
X107695Y319386D01*
X108018Y320165D01*
X108128Y321000D01*
X108018Y321835D01*
X107695Y322614D01*
X107182Y323282D01*
X106514Y323795D01*
X105735Y324118D01*
X104900Y324228D01*
D02*
G37*
G36*
X76100Y319328D02*
X75265Y319218D01*
X74486Y318895D01*
X73818Y318382D01*
X73305Y317714D01*
X72982Y316935D01*
X72872Y316100D01*
X72982Y315265D01*
X73305Y314486D01*
X73818Y313818D01*
X74486Y313305D01*
X75265Y312982D01*
X76100Y312872D01*
X76935Y312982D01*
X77714Y313305D01*
X78382Y313818D01*
X78895Y314486D01*
X79218Y315265D01*
X79328Y316100D01*
X79218Y316935D01*
X78895Y317714D01*
X78382Y318382D01*
X77714Y318895D01*
X76935Y319218D01*
X76100Y319328D01*
D02*
G37*
G36*
X306000Y311928D02*
X305165Y311818D01*
X304386Y311495D01*
X303718Y310982D01*
X303205Y310314D01*
X302882Y309535D01*
X302772Y308700D01*
X302882Y307865D01*
X303205Y307086D01*
X303718Y306418D01*
X304386Y305905D01*
X305165Y305582D01*
X306000Y305472D01*
X306835Y305582D01*
X307614Y305905D01*
X308282Y306418D01*
X308795Y307086D01*
X309118Y307865D01*
X309228Y308700D01*
X309118Y309535D01*
X308795Y310314D01*
X308282Y310982D01*
X307614Y311495D01*
X306835Y311818D01*
X306000Y311928D01*
D02*
G37*
G36*
X224578Y306928D02*
X223743Y306818D01*
X222964Y306495D01*
X222296Y305982D01*
X221783Y305314D01*
X221460Y304535D01*
X221350Y303700D01*
X221460Y302865D01*
X221783Y302086D01*
X222296Y301418D01*
X222964Y300905D01*
X223743Y300582D01*
X224578Y300472D01*
X225413Y300582D01*
X226192Y300905D01*
X226860Y301418D01*
X227373Y302086D01*
X227696Y302865D01*
X227806Y303700D01*
X227696Y304535D01*
X227373Y305314D01*
X226860Y305982D01*
X226192Y306495D01*
X225413Y306818D01*
X224578Y306928D01*
D02*
G37*
G36*
X262600Y302628D02*
X261765Y302518D01*
X260986Y302195D01*
X260318Y301682D01*
X259805Y301014D01*
X259482Y300235D01*
X259372Y299400D01*
X259482Y298565D01*
X259805Y297786D01*
X260318Y297118D01*
X260986Y296605D01*
X261765Y296282D01*
X262600Y296172D01*
X263435Y296282D01*
X264214Y296605D01*
X264882Y297118D01*
X265395Y297786D01*
X265718Y298565D01*
X265828Y299400D01*
X265718Y300235D01*
X265395Y301014D01*
X264882Y301682D01*
X264214Y302195D01*
X263435Y302518D01*
X262600Y302628D01*
D02*
G37*
G36*
X143100Y287764D02*
Y284800D01*
X146064D01*
X146010Y285214D01*
X145657Y286065D01*
X145096Y286796D01*
X144365Y287357D01*
X143514Y287710D01*
X143100Y287764D01*
D02*
G37*
G36*
X142100D02*
X141686Y287710D01*
X140835Y287357D01*
X140104Y286796D01*
X139543Y286065D01*
X139190Y285214D01*
X139136Y284800D01*
X142100D01*
Y287764D01*
D02*
G37*
G36*
X279100Y285464D02*
Y282500D01*
X282064D01*
X282010Y282914D01*
X281657Y283765D01*
X281096Y284496D01*
X280365Y285057D01*
X279514Y285410D01*
X279100Y285464D01*
D02*
G37*
G36*
X278100D02*
X277686Y285410D01*
X276835Y285057D01*
X276104Y284496D01*
X275543Y283765D01*
X275190Y282914D01*
X275136Y282500D01*
X278100D01*
Y285464D01*
D02*
G37*
G36*
X146064Y283800D02*
X143100D01*
Y280836D01*
X143514Y280890D01*
X144365Y281243D01*
X145096Y281804D01*
X145657Y282535D01*
X146010Y283386D01*
X146064Y283800D01*
D02*
G37*
G36*
X142100D02*
X139136D01*
X139190Y283386D01*
X139543Y282535D01*
X140104Y281804D01*
X140835Y281243D01*
X141686Y280890D01*
X142100Y280836D01*
Y283800D01*
D02*
G37*
G36*
X282064Y281500D02*
X279100D01*
Y278536D01*
X279514Y278590D01*
X280365Y278943D01*
X281096Y279504D01*
X281657Y280235D01*
X282010Y281086D01*
X282064Y281500D01*
D02*
G37*
G36*
X278100D02*
X275136D01*
X275190Y281086D01*
X275543Y280235D01*
X276104Y279504D01*
X276835Y278943D01*
X277686Y278590D01*
X278100Y278536D01*
Y281500D01*
D02*
G37*
G36*
X196500Y282728D02*
X195665Y282618D01*
X194886Y282295D01*
X194218Y281782D01*
X193705Y281114D01*
X193382Y280335D01*
X193272Y279500D01*
X193382Y278665D01*
X193705Y277886D01*
X194218Y277218D01*
X194886Y276705D01*
X195665Y276382D01*
X196500Y276272D01*
X197335Y276382D01*
X198114Y276705D01*
X198782Y277218D01*
X199295Y277886D01*
X199618Y278665D01*
X199728Y279500D01*
X199618Y280335D01*
X199295Y281114D01*
X198782Y281782D01*
X198114Y282295D01*
X197335Y282618D01*
X196500Y282728D01*
D02*
G37*
G36*
X175276Y281909D02*
X174441Y281800D01*
X173663Y281477D01*
X172994Y280964D01*
X172481Y280296D01*
X172159Y279517D01*
X172049Y278682D01*
X172159Y277847D01*
X172481Y277068D01*
X172994Y276400D01*
X173663Y275887D01*
X174441Y275564D01*
X175276Y275454D01*
X176112Y275564D01*
X176890Y275887D01*
X177559Y276400D01*
X178072Y277068D01*
X178394Y277847D01*
X178504Y278682D01*
X178394Y279517D01*
X178072Y280296D01*
X177559Y280964D01*
X176890Y281477D01*
X176112Y281800D01*
X175276Y281909D01*
D02*
G37*
G36*
X27700Y276684D02*
X26746Y276559D01*
X25858Y276191D01*
X25095Y275605D01*
X24509Y274842D01*
X24141Y273954D01*
X24016Y273000D01*
X24141Y272046D01*
X24509Y271158D01*
X25095Y270395D01*
X25858Y269809D01*
X26746Y269441D01*
X27700Y269316D01*
X28654Y269441D01*
X29542Y269809D01*
X30305Y270395D01*
X30891Y271158D01*
X31259Y272046D01*
X31384Y273000D01*
X31259Y273954D01*
X30891Y274842D01*
X30305Y275605D01*
X29542Y276191D01*
X28654Y276559D01*
X27700Y276684D01*
D02*
G37*
G36*
X258300Y273728D02*
X257465Y273618D01*
X256686Y273295D01*
X256018Y272782D01*
X255505Y272114D01*
X255182Y271335D01*
X255072Y270500D01*
X255182Y269665D01*
X255505Y268886D01*
X256018Y268218D01*
X256686Y267705D01*
X257465Y267382D01*
X258300Y267272D01*
X259135Y267382D01*
X259914Y267705D01*
X260582Y268218D01*
X261095Y268886D01*
X261418Y269665D01*
X261528Y270500D01*
X261418Y271335D01*
X261095Y272114D01*
X260582Y272782D01*
X259914Y273295D01*
X259135Y273618D01*
X258300Y273728D01*
D02*
G37*
G36*
X123000Y271328D02*
X122165Y271218D01*
X121386Y270895D01*
X120718Y270382D01*
X120205Y269714D01*
X119882Y268935D01*
X119772Y268100D01*
X119882Y267265D01*
X120205Y266486D01*
X120718Y265818D01*
X121386Y265305D01*
X122165Y264982D01*
X123000Y264872D01*
X123835Y264982D01*
X124614Y265305D01*
X125282Y265818D01*
X125795Y266486D01*
X126118Y267265D01*
X126228Y268100D01*
X126118Y268935D01*
X125795Y269714D01*
X125282Y270382D01*
X124614Y270895D01*
X123835Y271218D01*
X123000Y271328D01*
D02*
G37*
G36*
X27700Y266684D02*
X26746Y266559D01*
X25858Y266191D01*
X25095Y265605D01*
X24509Y264842D01*
X24141Y263954D01*
X24016Y263000D01*
X24141Y262046D01*
X24509Y261158D01*
X25095Y260395D01*
X25858Y259809D01*
X26746Y259441D01*
X27700Y259316D01*
X28654Y259441D01*
X29542Y259809D01*
X30305Y260395D01*
X30891Y261158D01*
X31259Y262046D01*
X31384Y263000D01*
X31259Y263954D01*
X30891Y264842D01*
X30305Y265605D01*
X29542Y266191D01*
X28654Y266559D01*
X27700Y266684D01*
D02*
G37*
%LPD*%
D58*
X362200Y383900D02*
D03*
X15500D02*
D03*
X15300Y16700D02*
D03*
X360100Y14700D02*
D03*
D59*
X202600Y38600D02*
D03*
X212600D02*
D03*
X222600D02*
D03*
X202500Y21200D02*
D03*
X212500D02*
D03*
X222500D02*
D03*
X27700Y273000D02*
D03*
Y263000D02*
D03*
Y253000D02*
D03*
Y243000D02*
D03*
Y233000D02*
D03*
Y223000D02*
D03*
Y213000D02*
D03*
Y203000D02*
D03*
Y193000D02*
D03*
Y183000D02*
D03*
Y173000D02*
D03*
Y163000D02*
D03*
Y153000D02*
D03*
Y143000D02*
D03*
Y133000D02*
D03*
X380300Y118700D02*
D03*
Y128700D02*
D03*
Y138700D02*
D03*
Y148700D02*
D03*
Y158700D02*
D03*
X244600Y383600D02*
D03*
X234600D02*
D03*
X224600D02*
D03*
X214600D02*
D03*
X204600D02*
D03*
X194600D02*
D03*
X184600D02*
D03*
D60*
X232600Y38600D02*
D03*
X232500Y21200D02*
D03*
X174600Y383600D02*
D03*
D61*
X27700Y123000D02*
D03*
X380300Y108700D02*
D03*
D62*
X234800Y122400D02*
D03*
D63*
X214800D02*
D03*
D64*
X142600Y284300D02*
D03*
X107300Y197100D02*
D03*
X101600Y216700D02*
D03*
X109800Y342200D02*
D03*
X130700Y207700D02*
D03*
X245213Y195513D02*
D03*
X224578Y303700D02*
D03*
X364442Y71443D02*
D03*
X104900Y321000D02*
D03*
X76100Y316100D02*
D03*
X208000Y146500D02*
D03*
X107400Y59700D02*
D03*
X22400Y81600D02*
D03*
X105600Y92000D02*
D03*
X87700Y108200D02*
D03*
X123000Y268100D02*
D03*
X257500Y328500D02*
D03*
X306000Y308700D02*
D03*
X278600Y282000D02*
D03*
X258300Y270500D02*
D03*
X175276Y278682D02*
D03*
X196500Y279500D02*
D03*
X246000Y217400D02*
D03*
X245091Y227010D02*
D03*
X244305Y235200D02*
D03*
X220461Y181039D02*
D03*
X204900Y178500D02*
D03*
X188900Y170700D02*
D03*
X182400Y175200D02*
D03*
X176178Y209722D02*
D03*
X197389Y206511D02*
D03*
X215300Y205500D02*
D03*
X225600Y214300D02*
D03*
X218600Y241800D02*
D03*
X186000Y253900D02*
D03*
X169178Y233278D02*
D03*
X123700Y203700D02*
D03*
X124337Y227663D02*
D03*
X144200Y224200D02*
D03*
X143900Y236900D02*
D03*
X8000Y333300D02*
D03*
D65*
X344000Y161100D02*
D03*
X343500Y151100D02*
D03*
X343000Y139500D02*
D03*
X343500Y127800D02*
D03*
X290100Y175600D02*
D03*
X261000Y156300D02*
D03*
X262000Y179400D02*
D03*
X180300Y146500D02*
D03*
X234700Y146400D02*
D03*
X171740Y170200D02*
D03*
X141200Y173300D02*
D03*
X267700Y329100D02*
D03*
X262600Y299400D02*
D03*
X203600Y161000D02*
D03*
X240966Y179700D02*
D03*
X230654Y174000D02*
D03*
X153700Y182200D02*
D03*
M02*
