G04*
G04 #@! TF.GenerationSoftware,Altium Limited,Altium Designer,18.0.7 (293)*
G04*
G04 Layer_Color=32768*
%FSLAX25Y25*%
%MOIN*%
G70*
G01*
G75*
%ADD13C,0.00394*%
%ADD88C,0.00197*%
%ADD89C,0.00004*%
D13*
X194065Y227994D02*
Y231931D01*
X192096Y229962D02*
X196033D01*
X11267Y307713D02*
Y356887D01*
X83732D01*
Y307713D02*
Y356887D01*
X11267Y307713D02*
X83732D01*
D88*
X59078Y81600D02*
G03*
X59078Y81600I-1378J0D01*
G01*
X148002Y183899D02*
X240128D01*
X148002Y276025D02*
X240128D01*
Y183899D02*
Y276025D01*
X148002Y183899D02*
Y276025D01*
X187336Y294253D02*
X198675D01*
Y300946D01*
X187336D02*
X198675D01*
X187336Y294253D02*
Y300946D01*
X130053Y230143D02*
X136747D01*
Y218805D02*
Y230143D01*
X130053Y218805D02*
X136747D01*
X130053D02*
Y230143D01*
X184880Y160754D02*
Y167446D01*
X173542Y160754D02*
X184880D01*
X173542D02*
Y167446D01*
X184880D01*
X187431Y284454D02*
Y291146D01*
X198769D01*
Y284454D02*
Y291146D01*
X187431Y284454D02*
X198769D01*
X155105Y160160D02*
Y167640D01*
X168295D01*
Y160160D02*
Y167640D01*
X155105Y160160D02*
X168295D01*
X136065Y160360D02*
Y167840D01*
X149254D01*
Y160360D02*
Y167840D01*
X136065Y160360D02*
X149254D01*
X176742Y265247D02*
X188080D01*
X176742Y258554D02*
Y265247D01*
Y258554D02*
X188080D01*
Y265247D01*
X230047Y240420D02*
Y251758D01*
X223354D02*
X230047D01*
X223354Y240420D02*
Y251758D01*
Y240420D02*
X230047D01*
X166047Y249842D02*
Y261180D01*
X159353D02*
X166047D01*
X159353Y249842D02*
Y261180D01*
Y249842D02*
X166047D01*
X165547Y196242D02*
Y207580D01*
X158853D02*
X165547D01*
X158853Y196242D02*
Y207580D01*
Y196242D02*
X165547D01*
X167320Y203646D02*
X178658D01*
X167320Y196953D02*
Y203646D01*
Y196953D02*
X178658D01*
Y203646D01*
X193620Y257254D02*
X204958D01*
Y263947D01*
X193620D02*
X204958D01*
X193620Y257254D02*
Y263947D01*
X223753Y254042D02*
Y265380D01*
Y254042D02*
X230447D01*
Y265380D01*
X223753D02*
X230447D01*
X223553Y226231D02*
Y237569D01*
Y226231D02*
X230246D01*
Y237569D01*
X223553D02*
X230246D01*
X223054Y198820D02*
Y210158D01*
Y198820D02*
X229747D01*
Y210158D01*
X223054D02*
X229747D01*
X158653Y224420D02*
Y235758D01*
Y224420D02*
X165347D01*
Y235758D01*
X158653D02*
X165347D01*
X188531Y201847D02*
X199869D01*
X188531Y195153D02*
Y201847D01*
Y195153D02*
X199869D01*
Y201847D01*
X208342Y200547D02*
X219680D01*
X208342Y193853D02*
Y200547D01*
Y193853D02*
X219680D01*
Y200547D01*
X131454Y252931D02*
Y264269D01*
Y252931D02*
X138146D01*
Y264269D01*
X131454D02*
X138146D01*
X256846Y214568D02*
Y225906D01*
X250153D02*
X256846D01*
X250153Y214568D02*
Y225906D01*
Y214568D02*
X256846D01*
Y194042D02*
Y205380D01*
X250153D02*
X256846D01*
X250153Y194042D02*
Y205380D01*
Y194042D02*
X256846D01*
X163542Y283453D02*
X174880D01*
Y290146D01*
X163542D02*
X174880D01*
X163542Y283453D02*
Y290146D01*
X250153Y255620D02*
Y266958D01*
Y255620D02*
X256846D01*
Y266958D01*
X250153D02*
X256846D01*
X211131Y290146D02*
X222469D01*
X211131Y283453D02*
Y290146D01*
Y283453D02*
X222469D01*
Y290146D01*
X131454Y191842D02*
Y203180D01*
Y191842D02*
X138146D01*
Y203180D01*
X131454D02*
X138146D01*
X295063Y298267D02*
X302937D01*
X295063D02*
Y311653D01*
X302937D01*
Y298267D02*
Y311653D01*
X282063Y312033D02*
X289937D01*
Y298647D02*
Y312033D01*
X282063Y298647D02*
X289937D01*
X282063D02*
Y312033D01*
X310563Y298767D02*
X318437D01*
X310563D02*
Y312153D01*
X318437D01*
Y298767D02*
Y312153D01*
X244996Y131595D02*
X252476D01*
Y118405D02*
Y131595D01*
X244996Y118405D02*
X252476D01*
X244996D02*
Y131595D01*
Y141247D02*
X252870D01*
X244996D02*
Y154633D01*
X252870D01*
Y141247D02*
Y154633D01*
X348107Y157163D02*
Y165037D01*
X361493D01*
Y157163D02*
Y165037D01*
X348107Y157163D02*
X361493D01*
X348207Y135563D02*
Y143437D01*
X361593D01*
Y135563D02*
Y143437D01*
X348207Y135563D02*
X361593D01*
X348207Y147163D02*
Y155037D01*
X361593D01*
Y147163D02*
Y155037D01*
X348207Y147163D02*
X361593D01*
X348207Y123863D02*
Y131737D01*
X361593D01*
Y123863D02*
Y131737D01*
X348207Y123863D02*
X361593D01*
X40567Y268743D02*
Y276617D01*
X53953D01*
Y268743D02*
Y276617D01*
X40567Y268743D02*
X53953D01*
X40667Y259363D02*
Y267237D01*
X54053D01*
Y259363D02*
Y267237D01*
X40667Y259363D02*
X54053D01*
X187142Y151854D02*
X198480D01*
Y158546D01*
X187142D02*
X198480D01*
X187142Y151854D02*
Y158546D01*
X131454Y232568D02*
Y243906D01*
Y232568D02*
X138146D01*
Y243906D01*
X131454D02*
X138146D01*
X85220Y88554D02*
Y95246D01*
X96558D01*
Y88554D02*
Y95246D01*
X85220Y88554D02*
X96558D01*
X76320Y338953D02*
Y345647D01*
X87658D01*
Y338953D02*
Y345647D01*
X76320Y338953D02*
X87658D01*
X86731Y317553D02*
Y324247D01*
X98069D01*
Y317553D02*
Y324247D01*
X86731Y317553D02*
X98069D01*
X95942Y63954D02*
Y70647D01*
X107280D01*
Y63954D02*
Y70647D01*
X95942Y63954D02*
X107280D01*
X55731Y81600D02*
X59668D01*
X57700Y79632D02*
Y83569D01*
X89196Y60340D02*
Y102860D01*
X26204Y60340D02*
X89196D01*
X26204D02*
Y102860D01*
X89196D01*
X276476Y286295D02*
Y323106D01*
X253524Y286295D02*
X276476D01*
X253524D02*
Y323106D01*
X276476D01*
X210955Y139510D02*
Y153290D01*
Y139510D02*
X231428D01*
Y153290D01*
X210955D02*
X231428D01*
D89*
X71247Y61450D02*
Y101750D01*
X34448Y61450D02*
X71247D01*
X34448D02*
Y101750D01*
X71247D01*
M02*
