G04*
G04 #@! TF.GenerationSoftware,Altium Limited,Altium Designer,18.0.7 (293)*
G04*
G04 Layer_Color=65535*
%FSLAX25Y25*%
%MOIN*%
G70*
G01*
G75*
%ADD10C,0.02362*%
%ADD11C,0.00984*%
%ADD12C,0.00500*%
%ADD13C,0.00394*%
%ADD14C,0.00787*%
%ADD15C,0.00400*%
%ADD16C,0.01000*%
%ADD17R,0.02756X0.12697*%
D10*
X162765Y262442D02*
G03*
X162765Y262442I-1181J0D01*
G01*
D11*
X153021Y267167D02*
G03*
X153021Y267167I-492J0D01*
G01*
X87523Y67624D02*
G03*
X87523Y67624I-492J0D01*
G01*
X244036Y122404D02*
G03*
X244036Y122404I-492J0D01*
G01*
D12*
X118898Y115700D02*
G03*
X118898Y115700I-8200J0D01*
G01*
X114798Y357800D02*
G03*
X114798Y357800I-8200J0D01*
G01*
X102135Y111172D02*
X106072Y107235D01*
Y124165D02*
X107254D01*
X102135Y120228D02*
X106072Y124165D01*
X102135Y115503D02*
Y119046D01*
Y124165D02*
X119065D01*
Y107235D02*
Y124165D01*
X102135Y107235D02*
X119065D01*
X102135D02*
Y124165D01*
X98035Y353272D02*
X101972Y349335D01*
Y366265D02*
X103154D01*
X98035Y362328D02*
X101972Y366265D01*
X98035Y357603D02*
Y361146D01*
Y366265D02*
X114965D01*
Y349335D02*
Y366265D01*
X98035Y349335D02*
X114965D01*
X98035D02*
Y366265D01*
D13*
X79598Y322458D02*
G03*
X79598Y322064I0J-197D01*
G01*
D02*
G03*
X79598Y322458I0J197D01*
G01*
X50464Y312615D02*
X59121D01*
Y351985D01*
X50464D02*
X59121D01*
D14*
X200524Y132587D02*
G03*
X200524Y132587I-252J0D01*
G01*
X157647Y193545D02*
X230482D01*
X157647Y266379D02*
X230482D01*
Y193545D02*
Y266379D01*
X157647Y193545D02*
Y266379D01*
X57306Y61915D02*
X74629D01*
Y101285D01*
X57306D02*
X74629D01*
X237600Y33600D02*
Y43600D01*
X197600Y33600D02*
X237600D01*
X197600Y43600D02*
X237600D01*
X197600Y33600D02*
Y43600D01*
X237500Y16200D02*
Y26200D01*
X197500Y16200D02*
X237500D01*
X197500Y26200D02*
X237500D01*
X197500Y16200D02*
Y26200D01*
X22700Y278000D02*
X32700D01*
X22700Y125500D02*
Y278000D01*
Y118000D02*
Y125500D01*
Y118000D02*
X32700D01*
Y278000D01*
X275295Y295153D02*
Y314247D01*
X254705Y295153D02*
X275295D01*
X254705D02*
Y314247D01*
X275295D01*
X275157Y315625D02*
Y322121D01*
X214302Y140888D02*
X228081D01*
X211939Y151912D02*
X228081D01*
X375300Y163700D02*
X385300D01*
X375300Y103700D02*
X385300D01*
X375300D02*
Y163700D01*
X385300Y103700D02*
Y163700D01*
X207950Y117400D02*
X241650D01*
X207950D02*
Y127400D01*
X241650D01*
Y117400D02*
Y127400D01*
X185670Y131736D02*
X198268D01*
X185670Y151421D02*
X198268D01*
X169600Y388600D02*
X249600D01*
X169600Y378600D02*
Y388600D01*
Y378600D02*
X249600D01*
Y388600D01*
D15*
X104301Y118729D02*
X106633D01*
X105467Y119895D02*
Y117563D01*
X100201Y360829D02*
X102533D01*
X101367Y361995D02*
Y359663D01*
D16*
X148900Y285098D02*
Y280100D01*
X149900Y279100D01*
X151899D01*
X152899Y280100D01*
Y285098D01*
X154898Y279100D02*
X156897D01*
X155898D01*
Y285098D01*
X154898Y284098D01*
X100149Y374548D02*
X99149Y375548D01*
X97150D01*
X96150Y374548D01*
Y370550D01*
X97150Y369550D01*
X99149D01*
X100149Y370550D01*
X102148Y374548D02*
X103148Y375548D01*
X105147D01*
X106147Y374548D01*
Y373549D01*
X105147Y372549D01*
X104147D01*
X105147D01*
X106147Y371549D01*
Y370550D01*
X105147Y369550D01*
X103148D01*
X102148Y370550D01*
X108146Y369550D02*
X110145D01*
X109146D01*
Y375548D01*
X108146Y374548D01*
X104249Y132448D02*
X103249Y133448D01*
X101250D01*
X100250Y132448D01*
Y128450D01*
X101250Y127450D01*
X103249D01*
X104249Y128450D01*
X106248Y132448D02*
X107248Y133448D01*
X109247D01*
X110247Y132448D01*
Y131449D01*
X109247Y130449D01*
X108247D01*
X109247D01*
X110247Y129449D01*
Y128450D01*
X109247Y127450D01*
X107248D01*
X106248Y128450D01*
X112246Y132448D02*
X113246Y133448D01*
X115245D01*
X116245Y132448D01*
Y128450D01*
X115245Y127450D01*
X113246D01*
X112246Y128450D01*
Y132448D01*
X185469Y160777D02*
Y159777D01*
X187469Y157778D01*
X189468Y159777D01*
Y160777D01*
X187469Y157778D02*
Y154779D01*
X191467D02*
X193467D01*
X192467D01*
Y160777D01*
X191467Y159777D01*
X212599Y135798D02*
X211599Y136798D01*
X209600D01*
X208600Y135798D01*
Y134799D01*
X209600Y133799D01*
X211599D01*
X212599Y132799D01*
Y131800D01*
X211599Y130800D01*
X209600D01*
X208600Y131800D01*
X214598Y130800D02*
X216597D01*
X215598D01*
Y136798D01*
X214598Y135798D01*
X198200Y47000D02*
Y52998D01*
X201199D01*
X202199Y51998D01*
Y49999D01*
X201199Y48999D01*
X198200D01*
X207197Y47000D02*
Y52998D01*
X204198Y49999D01*
X208197D01*
X198100Y29600D02*
Y35598D01*
X201099D01*
X202099Y34598D01*
Y32599D01*
X201099Y31599D01*
X198100D01*
X204098Y34598D02*
X205098Y35598D01*
X207097D01*
X208097Y34598D01*
Y33599D01*
X207097Y32599D01*
X206097D01*
X207097D01*
X208097Y31599D01*
Y30600D01*
X207097Y29600D01*
X205098D01*
X204098Y30600D01*
X23300Y281400D02*
Y287398D01*
X26299D01*
X27299Y286398D01*
Y284399D01*
X26299Y283399D01*
X23300D01*
X33297Y281400D02*
X29298D01*
X33297Y285399D01*
Y286398D01*
X32297Y287398D01*
X30298D01*
X29298Y286398D01*
X170200Y392000D02*
Y397998D01*
X173199D01*
X174199Y396998D01*
Y394999D01*
X173199Y393999D01*
X170200D01*
X176198Y392000D02*
X178197D01*
X177198D01*
Y397998D01*
X176198Y396998D01*
X211891Y162398D02*
Y156400D01*
X215890D01*
X221888Y162398D02*
X217889D01*
Y156400D01*
X221888D01*
X217889Y159399D02*
X219889D01*
X223887Y162398D02*
Y156400D01*
X226887D01*
X227886Y157400D01*
Y161398D01*
X226887Y162398D01*
X223887D01*
X229886Y156400D02*
X231885D01*
X230885D01*
Y162398D01*
X229886Y161398D01*
X373499Y94598D02*
X371499D01*
X372499D01*
Y89600D01*
X371499Y88600D01*
X370500D01*
X369500Y89600D01*
X375498Y88600D02*
X377497D01*
X376498D01*
Y94598D01*
X375498Y93598D01*
X14600Y363698D02*
X16599D01*
X15600D01*
Y357700D01*
X14600D01*
X16599D01*
X23597Y362698D02*
X22597Y363698D01*
X20598D01*
X19598Y362698D01*
Y358700D01*
X20598Y357700D01*
X22597D01*
X23597Y358700D01*
X25596Y362698D02*
X26596Y363698D01*
X28596D01*
X29595Y362698D01*
Y361699D01*
X28596Y360699D01*
X27596D01*
X28596D01*
X29595Y359699D01*
Y358700D01*
X28596Y357700D01*
X26596D01*
X25596Y358700D01*
X27100Y111998D02*
X29099D01*
X28100D01*
Y106000D01*
X27100D01*
X29099D01*
X36097Y110998D02*
X35097Y111998D01*
X33098D01*
X32098Y110998D01*
Y107000D01*
X33098Y106000D01*
X35097D01*
X36097Y107000D01*
X42095Y106000D02*
X38096D01*
X42095Y109999D01*
Y110998D01*
X41096Y111998D01*
X39096D01*
X38096Y110998D01*
X254400Y332198D02*
X256399D01*
X255400D01*
Y326200D01*
X254400D01*
X256399D01*
X263397Y331198D02*
X262397Y332198D01*
X260398D01*
X259398Y331198D01*
Y327200D01*
X260398Y326200D01*
X262397D01*
X263397Y327200D01*
X265396Y326200D02*
X267396D01*
X266396D01*
Y332198D01*
X265396Y331198D01*
X369950Y157050D02*
X371949D01*
X370950D01*
Y163048D01*
X369950Y162048D01*
D17*
X113750Y115749D02*
D03*
X109650Y357849D02*
D03*
M02*
