G04*
G04 #@! TF.GenerationSoftware,Altium Limited,Altium Designer,18.0.7 (293)*
G04*
G04 Layer_Color=255*
%FSLAX25Y25*%
%MOIN*%
G70*
G01*
G75*
%ADD58C,0.06000*%
%ADD59C,0.05906*%
%ADD60R,0.05906X0.05906*%
%ADD61R,0.05906X0.05906*%
%ADD62R,0.07284X0.07284*%
%ADD63C,0.07284*%
%ADD74R,0.03780X0.05472*%
%ADD75R,0.05472X0.03780*%
%ADD76R,0.03740X0.05512*%
%ADD77R,0.05709X0.03937*%
%ADD78R,0.05512X0.03740*%
%ADD79R,0.03937X0.05709*%
D58*
X362200Y383900D02*
D03*
X15500D02*
D03*
X15300Y16700D02*
D03*
X360100Y14700D02*
D03*
D59*
X202600Y38600D02*
D03*
X212600D02*
D03*
X222600D02*
D03*
X202500Y21200D02*
D03*
X212500D02*
D03*
X222500D02*
D03*
X27700Y273000D02*
D03*
Y263000D02*
D03*
Y253000D02*
D03*
Y243000D02*
D03*
Y233000D02*
D03*
Y223000D02*
D03*
Y213000D02*
D03*
Y203000D02*
D03*
Y193000D02*
D03*
Y183000D02*
D03*
Y173000D02*
D03*
Y163000D02*
D03*
Y153000D02*
D03*
Y143000D02*
D03*
Y133000D02*
D03*
X380300Y118700D02*
D03*
Y128700D02*
D03*
Y138700D02*
D03*
Y148700D02*
D03*
Y158700D02*
D03*
X244600Y383600D02*
D03*
X234600D02*
D03*
X224600D02*
D03*
X214600D02*
D03*
X204600D02*
D03*
X194600D02*
D03*
X184600D02*
D03*
D60*
X232600Y38600D02*
D03*
X232500Y21200D02*
D03*
X174600Y383600D02*
D03*
D61*
X27700Y123000D02*
D03*
X380300Y108700D02*
D03*
D62*
X234800Y122400D02*
D03*
D63*
X214800D02*
D03*
D74*
X189816Y297600D02*
D03*
X196195D02*
D03*
X176022Y164100D02*
D03*
X182400D02*
D03*
X196289Y287800D02*
D03*
X189911D02*
D03*
X185600Y261900D02*
D03*
X179222D02*
D03*
X176178Y200300D02*
D03*
X169800D02*
D03*
X196100Y260600D02*
D03*
X202478D02*
D03*
X197389Y198500D02*
D03*
X191011D02*
D03*
X217200Y197200D02*
D03*
X210822D02*
D03*
X166022Y286800D02*
D03*
X172400D02*
D03*
X219989D02*
D03*
X213611D02*
D03*
X189622Y155200D02*
D03*
X196000D02*
D03*
X94078Y91900D02*
D03*
X87700D02*
D03*
X85178Y342300D02*
D03*
X78800D02*
D03*
X95589Y320900D02*
D03*
X89211D02*
D03*
X104800Y67300D02*
D03*
X98422D02*
D03*
D75*
X133400Y221285D02*
D03*
Y227663D02*
D03*
X226700Y242900D02*
D03*
Y249278D02*
D03*
X162700Y252322D02*
D03*
Y258700D02*
D03*
X162200Y198722D02*
D03*
Y205100D02*
D03*
X227100Y262900D02*
D03*
Y256522D02*
D03*
X226900Y235089D02*
D03*
Y228711D02*
D03*
X226400Y207678D02*
D03*
Y201300D02*
D03*
X162000Y233278D02*
D03*
Y226900D02*
D03*
X134800Y261789D02*
D03*
Y255411D02*
D03*
X253500Y217048D02*
D03*
Y223426D02*
D03*
Y196522D02*
D03*
Y202900D02*
D03*
Y264478D02*
D03*
Y258100D02*
D03*
X134800Y200700D02*
D03*
Y194322D02*
D03*
Y241426D02*
D03*
Y235048D02*
D03*
D76*
X165440Y163900D02*
D03*
X157960D02*
D03*
X146400Y164100D02*
D03*
X138920D02*
D03*
D77*
X299000Y308700D02*
D03*
Y301220D02*
D03*
X286000Y301600D02*
D03*
Y309080D02*
D03*
X314500Y309200D02*
D03*
Y301720D02*
D03*
X248933Y151680D02*
D03*
Y144200D02*
D03*
D78*
X248736Y121260D02*
D03*
Y128740D02*
D03*
D79*
X358540Y161100D02*
D03*
X351060D02*
D03*
X358640Y139500D02*
D03*
X351160D02*
D03*
X358640Y151100D02*
D03*
X351160D02*
D03*
X358640Y127800D02*
D03*
X351160D02*
D03*
X51000Y272680D02*
D03*
X43520D02*
D03*
X51100Y263300D02*
D03*
X43620D02*
D03*
M02*
