M48
;Layer_Color=9474304
;FILE_FORMAT=2:5
INCH,TZ
;TYPE=PLATED
T1F00S00C0.01598
T2F00S00C0.02800
T3F00S00C0.03543
T4F00S00C0.04331
T5F00S00C0.15748
%
T01
X234700Y146400
X230654Y174000
X240966Y179700
X262000Y179400
X261000Y156300
X290100Y175600
X344000Y161100
X343500Y151100
X343000Y139500
X343500Y127800
X203600Y161000
X180300Y146500
X171740Y170200
X153700Y182200
X141200Y173300
X262600Y299400
X267700Y329100
T02
X220461Y181039
X215300Y205500
X245213Y195513
X364442Y71443
X208000Y146500
X204900Y178500
X188900Y170700
X182400Y175200
X176178Y209722
X197389Y206511
X130700Y207700
X123700Y203700
X107300Y197100
X105600Y92000
X107400Y59700
X87700Y108200
X22400Y81600
X8000Y333300
X76100Y316100
X104900Y321000
X109800Y342200
X123000Y268100
X142600Y284300
X175276Y278682
X196500Y279500
X186000Y253900
X169178Y233278
X143900Y236900
X144200Y224200
X124337Y227663
X101600Y216700
X225600Y214300
X246000Y217400
X245091Y227010
X244305Y235200
X218600Y241800
X224578Y303700
X257500Y328500
X258300Y270500
X278600Y282000
X306000Y308700
T03
X202500Y21200
X202600Y38600
X212600
X222600
X232600
X232500Y21200
X222500
X212500
X380300Y108700
Y118700
Y128700
Y138700
Y148700
Y158700
X27700Y163000
Y173000
Y183000
Y193000
Y203000
Y153000
Y143000
Y133000
Y123000
Y213000
Y223000
Y233000
Y243000
Y253000
Y263000
Y273000
X214600Y383600
X224600
X234600
X244600
X204600
X194600
X184600
X174600
T04
X214800Y122400
X234800
T05
X15300Y16700
X360100Y14700
X362200Y383900
X15500
M30
