G04*
G04 #@! TF.GenerationSoftware,Altium Limited,Altium Designer,18.0.7 (293)*
G04*
G04 Layer_Physical_Order=4*
G04 Layer_Color=16711680*
%FSLAX25Y25*%
%MOIN*%
G70*
G01*
G75*
%ADD16C,0.01000*%
%ADD54C,0.01575*%
%ADD55C,0.01181*%
%ADD58C,0.06000*%
%ADD59C,0.05906*%
%ADD60R,0.05906X0.05906*%
%ADD61R,0.05906X0.05906*%
%ADD62R,0.07284X0.07284*%
%ADD63C,0.07284*%
%ADD64C,0.05000*%
%ADD65C,0.02402*%
%ADD74R,0.03780X0.05472*%
%ADD75R,0.05472X0.03780*%
%ADD76R,0.03740X0.05512*%
%ADD77R,0.05709X0.03937*%
%ADD78R,0.05512X0.03740*%
%ADD79R,0.03937X0.05709*%
D16*
X279066Y179366D02*
X312146Y212446D01*
Y300251D01*
X343000Y139500D02*
X351160D01*
X277000Y172300D02*
X286800D01*
X261000Y156300D02*
X277000Y172300D01*
X262000Y179400D02*
X279033D01*
X279066Y179366D01*
X165440Y163900D02*
X171740Y170200D01*
X141200Y173300D02*
X142400D01*
X146400Y169300D01*
X240966Y179700D02*
X248933Y171733D01*
X217400Y173700D02*
X230354D01*
X230654Y174000D01*
X193500Y182200D02*
X195800Y179900D01*
Y176900D02*
Y179900D01*
X153700Y182200D02*
X193500D01*
X263000Y299000D02*
X266100Y302100D01*
X61500Y345100D02*
X84700Y368300D01*
X211400D02*
X249600Y330100D01*
X84700Y368300D02*
X211400D01*
X286800Y172300D02*
X290100Y175600D01*
X201700Y161000D02*
X203600D01*
X200300Y162400D02*
X201700Y161000D01*
X190800Y162400D02*
X200300D01*
X189622Y161222D02*
X190800Y162400D01*
X189622Y155200D02*
Y161222D01*
X152900Y193500D02*
X155600Y190800D01*
X152900Y193500D02*
Y288000D01*
X204400Y190800D02*
X215100Y180100D01*
X155600Y190800D02*
X204400D01*
X195800Y176900D02*
X212700Y160000D01*
Y144500D02*
Y160000D01*
Y144500D02*
X234800Y122400D01*
X215100Y176000D02*
Y180100D01*
Y176000D02*
X217400Y173700D01*
X141700Y299200D02*
X152900Y288000D01*
X117200Y299200D02*
X141700D01*
X112200Y304200D02*
X117200Y299200D01*
X112200Y304200D02*
Y324600D01*
X107700Y329100D02*
X112200Y324600D01*
X67000Y329100D02*
X107700D01*
X61500Y334600D02*
X67000Y329100D01*
X61500Y334600D02*
Y345100D01*
X146400Y164100D02*
Y169300D01*
X249600Y304900D02*
Y330100D01*
X180300Y146500D02*
Y150200D01*
X185300Y155200D01*
X189622D01*
X165440Y163900D02*
Y164840D01*
X234800Y122400D02*
X235940Y121260D01*
X248736D01*
X246733Y146400D02*
X248933Y144200D01*
X234700Y146400D02*
X246733D01*
X248933Y151680D02*
Y171733D01*
X249600Y304900D02*
X255100Y299400D01*
X262600D01*
X312146Y300251D02*
X313614Y301720D01*
X267700Y329100D02*
X305400D01*
X314500Y320000D01*
Y309200D02*
Y320000D01*
X313614Y301720D02*
X314500D01*
X292900Y301600D02*
X298620D01*
X286000D02*
X292900D01*
X266100Y302100D02*
X272000D01*
X275700Y305800D01*
Y311000D01*
X280100Y315400D01*
X290300D01*
X292900Y312800D01*
Y301600D02*
Y312800D01*
X298620Y301600D02*
X299000Y301220D01*
X343500Y127800D02*
X351160D01*
X342400D02*
X343500D01*
X343500Y151100D02*
X351160D01*
X344000Y161100D02*
X351060D01*
X379400Y127800D02*
X380300Y128700D01*
X358640Y127800D02*
X379400D01*
X358640Y139500D02*
X359440Y138700D01*
X380300D01*
X377900Y161100D02*
X380300Y158700D01*
X358540Y161100D02*
X377900D01*
X358640Y151100D02*
X361040Y148700D01*
X380300D01*
X51000Y263180D02*
Y272680D01*
X45800Y258000D02*
X51000Y263180D01*
X22300Y258000D02*
X45800D01*
X14400Y250100D02*
X22300Y258000D01*
X14400Y156300D02*
Y250100D01*
Y156300D02*
X27700Y143000D01*
D54*
X188722Y286800D02*
X189816Y287895D01*
X196100Y153400D02*
X197900Y155200D01*
X171595Y278906D02*
X175906D01*
X95789Y321100D02*
X95889Y321000D01*
X27800Y272900D02*
X43700D01*
X85278Y342200D02*
X109800D01*
X130700Y207700D02*
X131800D01*
X133400Y209300D01*
X196195Y286800D02*
Y297600D01*
X133400Y209300D02*
Y221285D01*
X222500Y21200D02*
Y75000D01*
X219989Y299111D02*
X224578Y303700D01*
X256300Y136304D02*
Y182700D01*
X264626Y191026D01*
X199300Y155200D02*
X208000Y146500D01*
X197900Y155200D02*
X199300D01*
X94178Y92000D02*
X105600D01*
X94078Y91900D02*
X94178Y92000D01*
X87700Y91900D02*
Y108200D01*
X142600Y259000D02*
Y284300D01*
Y259000D02*
X142900Y258700D01*
X299000Y308700D02*
X306000D01*
X246000Y217400D02*
X253148D01*
X253500Y217048D01*
X245091Y227010D02*
X247110D01*
X182400Y164100D02*
Y175200D01*
X216100Y205500D02*
X217200Y204400D01*
X215300Y205500D02*
X216100D01*
X175906Y278906D02*
X183800Y286800D01*
X95889Y321000D02*
X104900D01*
X95589Y320900D02*
X95789Y321100D01*
X76100Y316100D02*
X78300D01*
X83100Y320900D01*
X217302Y282000D02*
X278600D01*
X213611Y285691D02*
X217302Y282000D01*
X213611Y285691D02*
Y286800D01*
X166022Y284478D02*
X171595Y278906D01*
X166022Y284478D02*
Y286800D01*
X82088Y347100D02*
X112600D01*
X196500Y286494D02*
X204294Y278700D01*
X200648Y265500D02*
X206200D01*
X196100Y260951D02*
X200648Y265500D01*
X196100Y260600D02*
Y260951D01*
X206200Y265500D02*
X208800Y262900D01*
X225600Y201300D02*
X226400D01*
X215000Y211900D02*
X225600Y201300D01*
X215000Y211900D02*
Y228711D01*
X196200Y286794D02*
X196500Y286494D01*
X101100Y74900D02*
X155900D01*
X98422Y72222D02*
X101100Y74900D01*
X98422Y67300D02*
Y72222D01*
X104800Y62300D02*
X107400Y59700D01*
X104800Y62300D02*
Y67300D01*
X155800Y75000D02*
X155900Y74900D01*
X222400D01*
X89400Y310800D02*
Y321900D01*
X83100Y320900D02*
X89211D01*
X77400Y298800D02*
X89400Y310800D01*
X25200Y298800D02*
X77400D01*
X217200Y197200D02*
Y204400D01*
X225600Y208922D02*
Y214300D01*
X225378Y208700D02*
X226400Y207678D01*
X196500Y279500D02*
Y286494D01*
X183800Y286800D02*
X188722D01*
X189816Y287895D02*
Y297600D01*
X124200Y304400D02*
X171800D01*
X122000Y306600D02*
X124200Y304400D01*
X171800D02*
X172400Y303800D01*
X122000Y306600D02*
Y337700D01*
X112600Y347100D02*
X122000Y337700D01*
X134800Y255411D02*
X139611D01*
X123700Y203700D02*
X126700Y200700D01*
X162200Y195600D02*
Y198722D01*
Y195600D02*
X163300Y194500D01*
X183100D01*
X184500Y195900D01*
Y203300D01*
X178078Y209722D02*
X184500Y203300D01*
X176178Y209722D02*
X178078D01*
X139300Y194944D02*
Y250911D01*
X135422Y194944D02*
X139300D01*
X134800Y194322D02*
X135422Y194944D01*
X155800Y75000D02*
Y155500D01*
X174200D01*
X176022Y157322D01*
Y164100D01*
X157500Y157200D02*
Y163440D01*
X155800Y155500D02*
X157500Y157200D01*
X139600Y155500D02*
X155800D01*
X138920Y156180D02*
X139600Y155500D01*
X138920Y156180D02*
Y164100D01*
X107300Y223500D02*
X118848Y235048D01*
X107300Y220300D02*
Y223500D01*
Y197100D02*
Y220300D01*
X219989Y286800D02*
Y299111D01*
X126700Y200700D02*
X134800D01*
X122200Y267300D02*
X123000Y268100D01*
X122200Y245900D02*
Y267300D01*
Y245900D02*
X126674Y241426D01*
X134800D01*
X123000Y268100D02*
X128489D01*
X134800Y261789D01*
X208800Y262900D02*
X227100D01*
X186000Y253900D02*
X195100D01*
X196100Y254900D01*
Y260600D01*
X186000Y253900D02*
Y261500D01*
X247110Y227010D02*
X253700Y233600D01*
Y237900D01*
X247300Y244300D02*
X253700Y237900D01*
X247300Y244300D02*
Y271200D01*
X239800Y278700D02*
X247300Y271200D01*
X204294Y278700D02*
X239800D01*
X217822Y256522D02*
X227100D01*
X207800Y246500D02*
X217822Y256522D01*
X201100Y303800D02*
X205400Y299500D01*
X172400Y303800D02*
X201100D01*
X205400Y295011D02*
Y299500D01*
X107300Y220300D02*
X107585Y221285D01*
X133400D01*
X278600Y261700D02*
Y282000D01*
X275000Y258100D02*
X278600Y261700D01*
X258300Y269278D02*
Y270500D01*
X253500Y264478D02*
X258300Y269278D01*
X134800Y255411D02*
X139300Y250911D01*
X118848Y235048D02*
X134800D01*
X179200Y227589D02*
X191011D01*
X265300Y224100D02*
Y253500D01*
X264626Y223426D02*
X265300Y224100D01*
X260700Y258100D02*
X265300Y253500D01*
X226400Y201300D02*
X228000Y202900D01*
X13900Y267800D02*
X18700Y263000D01*
X13900Y267800D02*
Y287500D01*
X25200Y298800D01*
X18700Y263000D02*
X27700D01*
X28000Y263300D02*
X43620D01*
X222500Y75000D02*
Y80100D01*
X222400Y74900D02*
X222500Y75000D01*
X245400Y195700D02*
X252678D01*
X264626Y191026D02*
Y214026D01*
X218600Y236600D02*
X220700Y234500D01*
X218600Y241800D02*
X225600D01*
X226700Y242900D01*
X218600Y236600D02*
Y241800D01*
X220700Y234500D02*
X226311D01*
X226900Y235089D01*
X216578Y249278D02*
X226700D01*
X210600Y243300D02*
X216578Y249278D01*
X210600Y228711D02*
Y243300D01*
X207800Y228711D02*
Y246500D01*
X169178Y233278D02*
Y245844D01*
X162700Y252322D02*
X169178Y245844D01*
X173100Y261700D02*
X179022D01*
X170100Y258700D02*
X173100Y261700D01*
X162700Y258700D02*
X170100D01*
X278600Y282000D02*
Y301680D01*
X260700Y258100D02*
X275000D01*
X162689Y227589D02*
X169800D01*
Y200300D02*
Y227589D01*
X228000Y202900D02*
X253500D01*
X256300Y113900D02*
X261500Y108700D01*
X380300D01*
X256300Y113900D02*
Y136304D01*
X222500Y80100D02*
X256300Y113900D01*
X278600Y301680D02*
X286000Y309080D01*
X248736Y128740D02*
X256300Y136304D01*
X264626Y214026D02*
Y223426D01*
X253500Y202900D02*
X264626Y214026D01*
X253500Y223426D02*
X264626D01*
X253500Y258100D02*
X260700D01*
X205400Y295011D02*
X213611Y286800D01*
X172400D02*
Y303800D01*
X169800Y227589D02*
X179200D01*
X179222Y227611D02*
Y261900D01*
X207800Y228711D02*
X210600D01*
X202600D02*
X207800D01*
X192133D02*
X202600D01*
X202478Y228833D02*
Y260600D01*
X215000Y228711D02*
X226900D01*
X210600D02*
X215000D01*
X210600D02*
X210822Y228489D01*
Y197200D02*
Y228489D01*
X191011Y227589D02*
X192133Y228711D01*
X191011Y198500D02*
Y227589D01*
X162200Y205100D02*
Y226700D01*
X176178Y200300D02*
Y209722D01*
X197389Y198500D02*
Y206511D01*
X162000Y233278D02*
X169178D01*
X124337Y227663D02*
X133400D01*
D55*
X78800Y342300D02*
X81998D01*
Y347009D01*
X82088Y347100D01*
X139611Y255411D02*
X142900Y258700D01*
D58*
X362200Y383900D02*
D03*
X15500D02*
D03*
X15300Y16700D02*
D03*
X360100Y14700D02*
D03*
D59*
X202600Y38600D02*
D03*
X212600D02*
D03*
X222600D02*
D03*
X202500Y21200D02*
D03*
X212500D02*
D03*
X222500D02*
D03*
X27700Y273000D02*
D03*
Y263000D02*
D03*
Y253000D02*
D03*
Y243000D02*
D03*
Y233000D02*
D03*
Y223000D02*
D03*
Y213000D02*
D03*
Y203000D02*
D03*
Y193000D02*
D03*
Y183000D02*
D03*
Y173000D02*
D03*
Y163000D02*
D03*
Y153000D02*
D03*
Y143000D02*
D03*
Y133000D02*
D03*
X380300Y118700D02*
D03*
Y128700D02*
D03*
Y138700D02*
D03*
Y148700D02*
D03*
Y158700D02*
D03*
X244600Y383600D02*
D03*
X234600D02*
D03*
X224600D02*
D03*
X214600D02*
D03*
X204600D02*
D03*
X194600D02*
D03*
X184600D02*
D03*
D60*
X232600Y38600D02*
D03*
X232500Y21200D02*
D03*
X174600Y383600D02*
D03*
D61*
X27700Y123000D02*
D03*
X380300Y108700D02*
D03*
D62*
X234800Y122400D02*
D03*
D63*
X214800D02*
D03*
D64*
X142600Y284300D02*
D03*
X107300Y197100D02*
D03*
X101600Y216700D02*
D03*
X109800Y342200D02*
D03*
X130700Y207700D02*
D03*
X245213Y195513D02*
D03*
X224578Y303700D02*
D03*
X364442Y71443D02*
D03*
X104900Y321000D02*
D03*
X76100Y316100D02*
D03*
X208000Y146500D02*
D03*
X107400Y59700D02*
D03*
X22400Y81600D02*
D03*
X105600Y92000D02*
D03*
X87700Y108200D02*
D03*
X123000Y268100D02*
D03*
X257500Y328500D02*
D03*
X306000Y308700D02*
D03*
X278600Y282000D02*
D03*
X258300Y270500D02*
D03*
X175276Y278682D02*
D03*
X196500Y279500D02*
D03*
X246000Y217400D02*
D03*
X245091Y227010D02*
D03*
X244305Y235200D02*
D03*
X220461Y181039D02*
D03*
X204900Y178500D02*
D03*
X188900Y170700D02*
D03*
X182400Y175200D02*
D03*
X176178Y209722D02*
D03*
X197389Y206511D02*
D03*
X215300Y205500D02*
D03*
X225600Y214300D02*
D03*
X218600Y241800D02*
D03*
X186000Y253900D02*
D03*
X169178Y233278D02*
D03*
X123700Y203700D02*
D03*
X124337Y227663D02*
D03*
X144200Y224200D02*
D03*
X143900Y236900D02*
D03*
X8000Y333300D02*
D03*
D65*
X344000Y161100D02*
D03*
X343500Y151100D02*
D03*
X343000Y139500D02*
D03*
X343500Y127800D02*
D03*
X290100Y175600D02*
D03*
X261000Y156300D02*
D03*
X262000Y179400D02*
D03*
X180300Y146500D02*
D03*
X234700Y146400D02*
D03*
X171740Y170200D02*
D03*
X141200Y173300D02*
D03*
X267700Y329100D02*
D03*
X262600Y299400D02*
D03*
X203600Y161000D02*
D03*
X240966Y179700D02*
D03*
X230654Y174000D02*
D03*
X153700Y182200D02*
D03*
D74*
X189816Y297600D02*
D03*
X196195D02*
D03*
X176022Y164100D02*
D03*
X182400D02*
D03*
X196289Y287800D02*
D03*
X189911D02*
D03*
X185600Y261900D02*
D03*
X179222D02*
D03*
X176178Y200300D02*
D03*
X169800D02*
D03*
X196100Y260600D02*
D03*
X202478D02*
D03*
X197389Y198500D02*
D03*
X191011D02*
D03*
X217200Y197200D02*
D03*
X210822D02*
D03*
X166022Y286800D02*
D03*
X172400D02*
D03*
X219989D02*
D03*
X213611D02*
D03*
X189622Y155200D02*
D03*
X196000D02*
D03*
X94078Y91900D02*
D03*
X87700D02*
D03*
X85178Y342300D02*
D03*
X78800D02*
D03*
X95589Y320900D02*
D03*
X89211D02*
D03*
X104800Y67300D02*
D03*
X98422D02*
D03*
D75*
X133400Y221285D02*
D03*
Y227663D02*
D03*
X226700Y242900D02*
D03*
Y249278D02*
D03*
X162700Y252322D02*
D03*
Y258700D02*
D03*
X162200Y198722D02*
D03*
Y205100D02*
D03*
X227100Y262900D02*
D03*
Y256522D02*
D03*
X226900Y235089D02*
D03*
Y228711D02*
D03*
X226400Y207678D02*
D03*
Y201300D02*
D03*
X162000Y233278D02*
D03*
Y226900D02*
D03*
X134800Y261789D02*
D03*
Y255411D02*
D03*
X253500Y217048D02*
D03*
Y223426D02*
D03*
Y196522D02*
D03*
Y202900D02*
D03*
Y264478D02*
D03*
Y258100D02*
D03*
X134800Y200700D02*
D03*
Y194322D02*
D03*
Y241426D02*
D03*
Y235048D02*
D03*
D76*
X165440Y163900D02*
D03*
X157960D02*
D03*
X146400Y164100D02*
D03*
X138920D02*
D03*
D77*
X299000Y308700D02*
D03*
Y301220D02*
D03*
X286000Y301600D02*
D03*
Y309080D02*
D03*
X314500Y309200D02*
D03*
Y301720D02*
D03*
X248933Y151680D02*
D03*
Y144200D02*
D03*
D78*
X248736Y121260D02*
D03*
Y128740D02*
D03*
D79*
X358540Y161100D02*
D03*
X351060D02*
D03*
X358640Y139500D02*
D03*
X351160D02*
D03*
X358640Y151100D02*
D03*
X351160D02*
D03*
X358640Y127800D02*
D03*
X351160D02*
D03*
X51000Y272680D02*
D03*
X43520D02*
D03*
X51100Y263300D02*
D03*
X43620D02*
D03*
M02*
